<svg width="460" height="460" viewBox="0 0 460 460" fill="none" xmlns="http://www.w3.org/2000/svg">
<circle cx="230" cy="230" r="230" fill="black"/>
<circle cx="230" cy="230" r="225" fill="#C34100"/>
<circle cx="230" cy="230" r="205" fill="black"/>
<circle cx="230" cy="230" r="200" fill="#FFF79E"/>
<path d="M179.493 46.5333C178.944 46.8723 178.005 47.6143 177.402 48.1863C176.802 48.7583 175.764 49.9273 175.098 50.7883C174.433 51.6483 173.295 53.3773 172.572 54.6283C171.847 55.8803 170.613 58.3433 169.827 60.1043C169.042 61.8653 167.637 65.5773 166.701 68.3533C165.768 71.1293 164.497 75.3843 163.877 77.8103C163.257 80.2343 162.421 84.0113 162.02 86.2013C161.619 88.3923 161.104 91.5923 160.879 93.3123C160.654 95.0333 160.321 98.5553 160.137 101.134C159.886 104.667 159.883 107.094 160.122 110.948C160.299 113.764 160.634 117.348 160.87 118.912C161.107 120.476 161.63 123.23 162.031 125.027C162.432 126.825 163.197 129.644 163.729 131.285C164.258 132.926 164.696 134.431 164.699 134.627C164.699 134.824 163.982 136.294 163.1 137.898C162.222 139.503 160.412 142.478 159.084 144.512C157.756 146.545 155.597 149.714 154.286 151.552C152.974 153.389 151.839 155.087 151.76 155.32C151.657 155.63 152.34 156.091 154.249 157.004C155.696 157.696 157.904 158.665 159.155 159.16C160.407 159.658 161.462 160.116 161.502 160.182C161.542 160.244 160.395 162.187 158.956 164.494C157.517 166.8 155.492 170.16 154.453 171.96C153.415 173.761 151.529 177.151 150.261 179.498C148.989 181.845 146.739 186.259 145.26 189.311C143.778 192.363 141.802 196.712 140.863 198.982C139.924 201.252 138.513 204.836 137.726 206.946C136.938 209.057 135.658 212.897 134.881 215.48C134.102 218.062 133.075 221.771 132.597 223.728C132.122 225.682 131.474 228.82 131.158 230.697C130.842 232.574 130.452 235.456 130.29 237.097C130.128 238.738 129.997 242.069 130 244.493C130 246.916 130.137 250.372 130.299 252.172C130.464 253.973 131.03 257.619 131.562 260.279C132.091 262.939 133.183 267.29 133.985 269.95C134.79 272.61 136.03 276.321 136.744 278.199C137.458 280.076 138.616 282.957 139.316 284.599C140.015 286.24 141.583 289.571 142.797 291.994C144.012 294.418 146 298.132 147.217 300.243C148.432 302.353 150.343 305.491 151.461 307.212C152.582 308.933 154.226 311.333 155.119 312.545C156.009 313.757 156.962 314.832 157.235 314.934C157.582 315.065 157.995 314.832 158.603 314.152C159.084 313.62 159.883 312.13 160.381 310.838C160.882 309.547 161.513 307.596 161.786 306.501C162.059 305.408 162.347 304.507 162.426 304.504C162.506 304.498 163.166 306.256 163.897 308.412C164.628 310.568 165.803 314.508 166.505 317.167C167.211 319.827 168.3 324.307 168.931 327.123C169.56 329.939 170.396 333.972 170.792 336.082C171.187 338.193 171.767 341.714 172.077 343.905C172.39 346.095 172.794 349.616 172.979 351.727C173.161 353.837 173.241 357.359 173.155 359.549C173.05 362.279 172.811 364.248 172.399 365.806C172.066 367.058 171.494 368.722 171.127 369.504C170.76 370.286 170.018 371.438 169.478 372.064C168.937 372.69 167.802 373.671 166.955 374.243C165.749 375.059 164.796 375.412 162.569 375.864C161.004 376.186 158.507 376.848 157.022 377.338C155.537 377.827 153.102 378.803 151.618 379.502C150.133 380.202 147.891 381.456 146.64 382.29C145.388 383.123 143.437 384.779 142.302 385.97C141.167 387.159 139.921 388.775 139.529 389.557C139.139 390.339 138.818 391.235 138.818 391.548C138.818 391.935 139.162 392.265 139.884 392.581C140.47 392.834 142.552 393.355 144.507 393.739C147.49 394.322 149.228 394.458 155.315 394.592C160.063 394.697 163.746 394.635 165.982 394.41C167.859 394.219 170.61 393.807 172.097 393.485C173.585 393.167 176.079 392.53 177.644 392.066C179.208 391.602 181.322 390.76 182.337 390.192C183.353 389.626 184.744 388.641 185.426 388.007C186.109 387.373 187.281 386.025 188.032 385.006C188.783 383.988 189.909 382.196 190.535 381.024C191.163 379.849 192.079 377.739 192.571 376.331C193.063 374.923 193.706 372.747 193.999 371.495C194.292 370.244 194.79 367.684 195.106 365.806C195.421 363.929 195.877 360.857 196.115 358.98C196.352 357.103 196.673 353.903 196.829 351.869C196.986 349.835 197.245 345.739 197.404 342.767C197.56 339.794 197.819 334.353 197.976 330.678C198.132 327.003 198.294 323.066 198.334 321.932C198.374 320.797 198.439 319.869 198.479 319.869C198.519 319.869 199.478 320.376 200.612 320.999C201.747 321.619 204.211 322.762 206.088 323.539L209.501 324.955C209.641 338.537 209.538 344.914 209.362 347.887C209.185 350.859 208.858 354.89 208.634 356.847C208.409 358.801 208.028 361.62 207.786 363.104C207.547 364.589 207.018 367.086 206.611 368.651C206.207 370.215 205.468 372.391 204.97 373.486C204.475 374.581 203.61 375.989 203.056 376.615C202.322 377.44 200.92 378.316 197.95 379.801C195.7 380.927 193.089 382.358 192.15 382.981C191.212 383.604 189.579 384.827 188.524 385.697C187.468 386.568 186.024 388.018 185.315 388.917C184.604 389.816 183.637 391.321 183.159 392.259C182.684 393.198 182.337 394.214 182.388 394.518C182.437 394.822 182.863 395.297 183.333 395.573C183.802 395.852 185.21 396.335 186.462 396.651C187.713 396.967 190.145 397.439 191.866 397.701C194.096 398.042 196.75 398.176 201.11 398.164C205.394 398.156 208.079 398.011 210.07 397.681C211.634 397.425 213.876 396.97 215.048 396.671C216.223 396.375 217.79 395.869 218.532 395.548C219.275 395.226 220.418 394.481 221.069 393.895C221.877 393.17 222.642 392.012 223.462 390.268C224.127 388.86 225.265 386.044 225.996 384.011C226.724 381.977 227.751 379.289 228.28 378.037C228.806 376.786 229.876 373.651 230.655 371.069C231.432 368.486 232.968 363.303 234.065 359.549C235.166 355.794 237.61 347.218 239.498 340.491C241.39 333.764 243.458 326.468 244.098 324.278C244.738 322.088 245.759 318.663 246.368 316.669C246.976 314.675 247.474 312.977 247.474 312.901C247.474 312.824 247.665 312.758 247.901 312.758C248.239 312.758 248.327 313.162 248.327 314.678C248.327 315.734 248.196 317.688 248.032 319.016C247.869 320.344 247.337 323.544 246.851 326.127C246.24 329.361 245.955 331.748 245.938 333.807C245.918 336.27 246.018 337.018 246.504 338.074C246.831 338.776 247.989 340.824 249.081 342.625C250.171 344.425 251.311 346.598 251.615 347.46C252.062 348.729 252.164 349.75 252.147 352.864C252.13 355.697 251.954 357.526 251.476 359.833C251.118 361.554 250.361 364.37 249.798 366.091C249.223 367.846 248.299 369.939 247.696 370.855C247.039 371.854 246.262 372.653 245.696 372.909C245.187 373.137 243.426 373.836 241.785 374.465C240.144 375.091 237.664 376.28 236.273 377.104C234.799 377.981 232.842 379.494 231.568 380.74C229.984 382.29 229.079 383.473 228.263 385.066C227.256 387.029 227.182 387.307 227.563 387.711C227.796 387.959 228.564 388.346 229.27 388.567C229.975 388.789 231.508 389.159 232.683 389.392C233.855 389.623 236.162 389.964 237.803 390.149C239.66 390.357 243.159 390.428 247.047 390.339C251.331 390.243 254.067 390.044 255.723 389.708C257.051 389.438 258.846 388.957 259.705 388.641C260.564 388.323 261.685 387.76 262.194 387.387C262.703 387.017 263.3 386.426 263.525 386.073C263.747 385.72 264.589 383.257 265.397 380.597C266.202 377.938 267.567 373.905 268.432 371.638C269.296 369.371 271.367 364.697 273.034 361.255L276.06 354.998C276.035 350.637 275.924 350.208 274.732 347.602C274.018 346.038 273.079 343.734 272.65 342.482C272.064 340.776 271.834 339.459 271.725 337.22C271.62 334.99 271.703 333.764 272.053 332.385C272.311 331.366 272.88 329.768 273.315 328.829C273.751 327.891 274.641 326.323 275.295 325.345C275.952 324.366 276.584 323.567 276.7 323.567C276.817 323.57 277.514 324.625 278.245 325.914C278.976 327.205 280.256 329.776 281.089 331.628L282.602 334.999C279.553 345.426 278.188 350.12 277.605 352.153C277.022 354.187 275.892 358.155 275.096 360.971C274.3 363.787 273.645 366.378 273.645 366.731C273.643 367.089 273.893 367.496 274.211 367.655C274.527 367.815 277.215 367.948 280.256 367.96C283.268 367.968 286.755 368.128 288.007 368.315L290.282 368.651C290.154 370.855 289.867 372.039 289.56 372.704C289.253 373.37 288.448 374.456 287.768 375.122C287.088 375.788 286.226 376.484 285.848 376.672C285.47 376.857 283.817 377.631 282.176 378.39C280.535 379.15 278.037 380.461 276.629 381.306C274.934 382.321 273.253 383.664 271.651 385.276C270.238 386.699 268.853 388.42 268.318 389.418C267.814 390.354 267.399 391.409 267.393 391.762C267.388 392.242 267.686 392.538 268.594 392.953C269.259 393.258 271.401 393.827 273.358 394.219C275.312 394.615 278.834 395.084 281.18 395.266C283.658 395.459 287.117 395.519 289.429 395.411C291.619 395.309 295.141 394.979 297.251 394.674C299.362 394.373 302.212 393.801 303.58 393.406C304.948 393.01 306.549 392.447 307.135 392.151C307.721 391.858 308.353 391.443 308.538 391.227C308.725 391.014 309.078 390.069 309.326 389.131C309.57 388.192 310.082 385.695 310.458 383.584C310.836 381.473 311.379 377.611 311.664 375.002L312.184 370.261C317.256 369.985 320.134 369.777 321.855 369.624C323.576 369.467 326.52 369.083 328.397 368.77C330.275 368.457 333.219 367.835 334.94 367.388C336.66 366.944 339.348 366.105 340.913 365.525C342.477 364.945 344.909 363.929 346.317 363.266C347.725 362.604 349.836 361.446 351.01 360.689C352.182 359.936 353.974 358.653 354.993 357.842C356.011 357.029 357.931 355.222 359.259 353.829C360.588 352.435 362.399 350.208 363.281 348.879C364.163 347.551 365.269 345.697 365.739 344.758C366.205 343.819 366.973 341.962 367.443 340.633C367.912 339.305 368.56 336.998 368.885 335.514C369.206 334.029 369.621 331.082 369.806 328.971C370.065 326.01 370.065 324.284 369.803 321.434C369.619 319.4 369.163 316.393 368.794 314.749C368.421 313.108 367.713 310.611 367.215 309.203C366.717 307.795 365.605 305.235 364.74 303.514C363.879 301.793 362.516 299.361 361.714 298.11C360.912 296.858 359.285 294.62 358.096 293.132C356.91 291.644 354.54 289.042 352.834 287.344C351.127 285.645 348.322 283.162 346.602 281.82C344.881 280.48 342.127 278.506 340.486 277.434C338.845 276.361 335.514 274.473 333.091 273.238C330.667 272.004 327.402 270.485 325.837 269.865C324.273 269.242 321.713 268.332 320.149 267.842L317.304 266.952C315.541 262.222 314.238 259.246 313.274 257.292C312.309 255.335 310.506 252.201 309.272 250.324C308.034 248.446 306.001 245.63 304.749 244.066C303.495 242.501 301.603 240.26 300.545 239.088C299.484 237.913 297.501 235.865 296.139 234.537C294.774 233.209 290.083 228.706 285.714 224.536C281.342 220.366 276.797 215.886 275.611 214.581C274.428 213.275 272.69 211.313 271.751 210.217C270.812 209.122 269.239 207.137 268.255 205.809C267.268 204.48 265.786 201.983 264.959 200.262C264.131 198.541 263.135 196.109 262.746 194.858C262.356 193.606 261.776 191.368 261.454 189.88C261.13 188.392 260.72 185.642 260.541 183.764C260.356 181.799 260.297 178.963 260.405 177.08C260.51 175.28 260.777 172.594 260.999 171.107C261.224 169.619 261.659 167.381 261.966 166.129C262.481 164.036 262.657 163.723 264.174 162.198C265.078 161.288 266.91 159.823 268.238 158.941C269.567 158.062 272.32 156.552 274.354 155.582C276.387 154.612 282.915 151.995 288.86 149.765C294.805 147.535 301.139 145.081 302.94 144.313C304.74 143.542 307.81 142.077 309.767 141.056C311.721 140.035 314.346 138.482 315.598 137.605C316.849 136.729 318.911 134.98 320.183 133.72C321.451 132.46 323.024 130.594 323.678 129.579C324.33 128.56 325.126 127.024 325.445 126.165C325.763 125.306 326.048 123.932 326.074 123.116C326.11 121.961 325.994 121.506 325.553 121.077C325.24 120.772 324.154 120.272 323.135 119.964C322.117 119.654 319.941 119.134 318.3 118.807C316.659 118.48 312.819 117.888 309.767 117.49C306.714 117.092 302.491 116.509 300.38 116.193C298.269 115.874 294.811 115.24 292.7 114.779C290.59 114.318 287.097 113.397 284.943 112.728L281.024 111.517C279.897 109.312 278.845 107.657 277.958 106.414C277.07 105.174 275.065 102.864 273.5 101.282C271.936 99.7013 269.293 97.3883 267.627 96.1453C265.963 94.9003 263.653 93.3043 262.492 92.6013L260.388 91.3213C260.092 79.7333 259.776 74.7553 259.418 71.6953C259.088 68.8793 258.493 64.9743 258.098 63.0193C257.702 61.0623 257.011 58.3123 256.559 56.9043C256.11 55.4963 255.379 53.7673 254.935 53.0643C254.491 52.3593 253.752 51.4833 253.291 51.1163C252.588 50.5583 252.244 50.4763 251.172 50.6213C250.466 50.7153 248.868 51.2833 247.616 51.8843C246.365 52.4813 244.379 53.5853 243.207 54.3333C242.033 55.0843 239.86 56.6653 238.372 57.8483C236.884 59.0323 233.955 61.5433 231.861 63.4293C229.765 65.3153 226.565 68.4643 224.75 70.4233C222.932 72.3863 220.361 75.2993 219.03 76.9003C217.699 78.4993 216.547 79.8013 216.47 79.7933C216.393 79.7873 215.406 78.4083 214.277 76.7323C213.151 75.0573 211.097 72.1503 209.712 70.2733C208.329 68.3953 206.131 65.5793 204.825 64.0153C203.519 62.4513 201.028 59.7203 199.293 57.9453C197.555 56.1733 195.046 53.7953 193.715 52.6633C192.384 51.5313 190.464 50.0463 189.448 49.3633C188.433 48.6813 186.638 47.6713 185.466 47.1223C184.175 46.5163 182.772 46.0813 181.911 46.0213C180.83 45.9443 180.249 46.0673 179.493 46.5333Z" fill="#010107"/>
<path d="M193.991 83.8553C193.988 83.8953 194.693 85.4623 195.561 87.3393C196.428 89.2173 197.105 90.7783 197.063 90.8073C197.02 90.8383 195.706 90.4233 194.141 89.8853C192.577 89.3473 191.072 88.9063 190.799 88.9063C190.333 88.9043 190.338 89.0373 190.887 90.9663C191.212 92.1013 191.991 94.2453 192.62 95.7303C193.248 97.2183 194.366 99.5843 195.106 100.992C195.845 102.4 197.242 104.767 198.212 106.254L199.972 108.957C190.813 118.215 185.964 123.27 183.29 126.165C180.613 129.061 176.796 133.282 174.805 135.552C172.811 137.822 169.628 141.451 167.728 143.621C165.828 145.789 163.541 148.414 162.642 149.452C161.746 150.488 161.01 151.435 161.007 151.552C161.007 151.668 161.547 151.842 162.213 151.936C162.879 152.027 164.38 151.958 165.555 151.782C166.727 151.606 168.968 151.068 170.533 150.587C172.097 150.104 174.785 149.14 176.506 148.44C178.227 147.74 179.797 147.018 179.996 146.836C180.195 146.651 180.451 146.602 180.565 146.722C180.679 146.844 180.531 147.419 180.235 148.002L179.698 149.063C181.413 147.999 182.997 147.075 184.328 146.324C185.657 145.576 188.41 144.242 190.444 143.36C192.477 142.481 195.805 141.189 197.839 140.493C199.873 139.796 203.457 138.723 205.803 138.109C208.15 137.495 211.797 136.675 213.91 136.289C216.021 135.902 219.542 135.324 221.732 135.006C223.922 134.687 228.081 134.221 230.976 133.968C234.643 133.649 241.979 133.438 255.154 133.271C265.559 133.14 276.245 132.892 278.905 132.722C281.564 132.554 285.404 132.284 287.438 132.124C289.472 131.965 292.865 131.649 294.976 131.422C297.086 131.194 300.619 130.716 302.823 130.364L306.834 129.721C306.228 127.735 306.134 126.777 306.231 126.308C306.33 125.838 306.717 124.88 307.096 124.174C307.471 123.469 307.747 122.874 307.707 122.849C307.667 122.823 306.163 122.587 304.362 122.323C302.562 122.058 299.171 121.481 296.824 121.04C294.478 120.596 291.278 119.965 289.713 119.632C288.149 119.299 285.398 118.579 283.598 118.03C281.797 117.484 279.943 116.898 279.474 116.73C279.004 116.563 278.077 116.187 277.411 115.891C276.746 115.598 276.106 115.359 275.989 115.365C275.873 115.368 275.497 115.081 275.156 114.725C274.812 114.367 274.098 113.053 273.563 111.801C273.028 110.55 272.05 108.63 271.387 107.534C270.724 106.439 269.649 104.855 268.998 104.013C268.346 103.171 266.916 101.632 265.82 100.594C264.725 99.5563 262.999 98.1113 261.98 97.3833C260.962 96.6553 259.042 95.4323 257.714 94.6663C256.386 93.9013 254.335 92.8493 253.163 92.3313C251.988 91.8113 250.518 91.1623 249.892 90.8923C249.266 90.6193 247.346 89.9423 245.625 89.3873C243.904 88.8303 241.472 88.1163 240.221 87.7973C238.969 87.4763 237.624 87.1513 237.234 87.0753C236.842 86.9983 234.859 86.6173 232.825 86.2333C230.792 85.8463 227.592 85.3993 225.714 85.2373C223.837 85.0753 221.63 84.9073 220.811 84.8623C219.991 84.8163 219.314 84.8423 219.309 84.9213C219.303 85.0013 219.784 85.9603 220.375 87.0553C220.967 88.1503 221.928 90.0703 222.514 91.3213C223.097 92.5733 223.578 93.8843 223.578 94.2373C223.581 94.7063 223.146 95.1563 221.945 95.9263C221.047 96.5013 219.221 97.4773 217.892 98.0883C216.561 98.7033 214.769 99.5223 213.91 99.9143C213.048 100.304 211.993 100.802 211.563 101.021C210.949 101.334 210.753 101.342 210.65 101.063C210.576 100.867 210.113 99.6213 209.621 98.2903C209.129 96.9593 208.563 95.4263 208.366 94.8773C208.167 94.3283 207.189 93.0963 206.193 92.1383C205.198 91.1823 203.548 89.7003 202.532 88.8503C201.514 87.9993 200.106 86.9133 199.404 86.4353C198.698 85.9573 197.324 85.1663 196.346 84.6743C195.367 84.1853 194.44 83.7843 194.284 83.7843C194.127 83.7843 193.996 83.8153 193.991 83.8553ZM167.697 163.535C167.339 164.181 166.15 166.499 165.055 168.689C163.959 170.879 162.298 174.401 161.362 176.511C160.427 178.622 158.95 182.206 158.08 184.476C157.21 186.746 155.921 190.455 155.219 192.724C154.516 194.994 153.62 198.129 153.227 199.693C152.835 201.258 152.189 204.202 151.788 206.235C151.387 208.269 150.852 211.404 150.602 213.204C150.332 215.121 150.079 219.476 149.991 223.728C149.891 228.496 149.959 232.151 150.187 234.395C150.38 236.272 150.773 239.154 151.066 240.795C151.356 242.436 151.672 244.166 151.765 244.635C151.859 245.104 152.064 246.063 152.221 246.768C152.377 247.474 153.082 249.84 153.785 252.03C154.488 254.221 155.113 255.947 155.173 255.87C155.23 255.793 155.156 254.96 155.002 254.021C154.852 253.083 154.653 248.603 154.562 244.066C154.451 238.673 154.51 234.438 154.732 231.835C154.92 229.645 155.392 225.933 155.787 223.586C156.18 221.24 156.939 217.624 157.471 215.551C158.006 213.477 158.973 210.343 159.619 208.582C160.265 206.821 161.431 204.102 162.207 202.538C162.987 200.973 164.315 198.638 165.16 197.347C166.002 196.055 166.79 195 166.906 194.997C167.023 194.997 167.344 195.862 167.62 196.917C167.896 197.975 168.479 199.608 168.917 200.547C169.355 201.485 170.283 203.013 170.977 203.94L172.239 205.627C172.552 201.69 172.848 199.457 173.104 198.129C173.357 196.8 173.866 194.622 174.239 193.293C174.609 191.965 175.249 189.98 175.664 188.884C176.077 187.789 177.018 185.613 177.755 184.049C178.494 182.485 179.78 179.99 180.613 178.502C181.447 177.015 183.344 173.946 184.832 171.676C186.319 169.406 188.285 166.559 189.204 165.347C190.119 164.135 190.868 163.111 190.865 163.072C190.859 163.032 189.676 163.245 188.234 163.547C186.308 163.945 184.433 164.09 181.199 164.093C178.327 164.095 175.9 163.933 174.231 163.626C172.823 163.37 170.923 162.98 170.009 162.761L168.348 162.366L167.697 163.535ZM250.233 167.523C249.127 168.021 248.908 168.248 248.902 168.9C248.899 169.332 248.561 170.612 248.151 171.744C247.741 172.879 245.958 176.816 244.192 180.491C242.425 184.168 239.993 189.479 238.79 192.295C237.584 195.111 235.599 200.424 234.373 204.099C233.147 207.777 231.375 213.921 230.436 217.752C229.497 221.587 228.283 227.091 227.74 229.983C227.193 232.879 225.908 240.493 224.878 246.908C223.848 253.322 222.548 260.874 221.988 263.69C221.428 266.505 220.415 270.729 219.732 273.076C219.053 275.423 218.051 278.623 217.511 280.187L216.524 283.031C218.745 287.44 220.233 290.128 221.266 291.849C222.298 293.57 224.09 296.258 225.248 297.822C226.408 299.387 228.587 301.893 230.092 303.392C231.597 304.888 233.371 306.486 234.037 306.947L235.249 307.778C236.167 306.896 237.527 305.232 238.864 303.511C240.201 301.79 242.027 299.296 242.923 297.965C243.819 296.636 245.289 294.332 246.191 292.845C247.096 291.36 248.768 288.351 249.912 286.16C251.055 283.97 252.693 280.452 253.547 278.338C254.403 276.228 255.495 273.218 255.976 271.654C256.457 270.089 257.105 267.723 257.418 266.392C257.734 265.063 258.18 262.631 258.416 260.987C258.65 259.346 258.849 255.953 258.86 253.45L258.877 248.899C259.725 250.443 260.351 251.851 260.811 253.023C261.275 254.198 261.989 256.308 262.399 257.716C262.808 259.124 263.394 261.812 263.701 263.69C264.009 265.567 264.341 268.895 264.441 271.085C264.555 273.571 264.489 276.353 264.27 278.48C264.077 280.358 263.735 282.855 263.511 284.027C263.289 285.202 262.785 287.378 262.393 288.863C262 290.35 261.619 291.789 261.545 292.062C261.434 292.475 261.619 292.432 262.62 291.806C263.286 291.391 264.646 290.336 265.647 289.46C266.645 288.584 268.181 286.871 269.06 285.654C270.061 284.266 270.721 283.578 270.832 283.805C270.929 284.007 271.094 284.875 271.202 285.734C271.307 286.596 271.725 288.578 272.135 290.143C272.542 291.707 273.335 294.142 273.899 295.553C274.462 296.961 275.725 299.521 276.706 301.241C277.687 302.959 279.511 305.741 280.759 307.422C282.008 309.106 284.039 311.538 285.273 312.827C286.508 314.118 288.524 315.907 289.753 316.8C290.982 317.696 292.148 318.433 292.344 318.436C292.541 318.441 293.821 317.565 295.189 316.493C296.557 315.418 298.457 313.723 299.407 312.724C300.357 311.726 301.745 310.076 302.49 309.058C303.236 308.042 304.536 305.835 305.383 304.151C306.231 302.47 306.919 300.872 306.919 300.596C306.916 300.323 307.027 299.97 307.167 299.813C307.309 299.657 307.747 298.249 308.145 296.685C308.543 295.12 309.038 292.882 309.246 291.707C309.488 290.356 309.621 287.341 309.613 283.458C309.602 278.389 309.491 276.737 308.959 273.787C308.603 271.833 308.12 269.529 307.881 268.667C307.642 267.808 307.087 266.016 306.646 264.685C306.205 263.357 305.434 261.243 304.937 259.992C304.439 258.74 303.469 256.63 302.783 255.299C302.101 253.97 300.494 251.282 299.214 249.325C297.934 247.371 295.832 244.49 294.54 242.925C293.249 241.361 290.544 238.417 288.53 236.383C286.516 234.349 283.336 231.343 281.462 229.696C279.584 228.052 277.283 226.069 276.345 225.287C275.406 224.508 274.575 223.805 274.496 223.726C274.419 223.649 273.836 223.137 273.202 222.588C272.567 222.042 271.225 220.893 270.215 220.036C269.205 219.18 266.654 216.748 264.54 214.632C262.43 212.516 259.932 209.814 258.994 208.63C258.055 207.444 256.855 205.846 256.326 205.075L255.364 203.673C254.113 206.099 253.373 207.953 252.915 209.361C252.455 210.769 251.906 212.726 251.695 213.708C251.487 214.689 251.217 215.488 251.101 215.485C250.984 215.48 250.745 214.934 250.574 214.268C250.401 213.605 250.222 212.869 250.173 212.632C250.128 212.399 249.886 211.216 249.636 210.001C249.385 208.79 249.127 207.382 249.061 206.873C248.993 206.366 248.782 204.284 248.592 202.25C248.376 199.935 248.307 196.59 248.415 193.29C248.507 190.398 248.777 186.558 249.016 184.757C249.252 182.96 249.59 180.718 249.764 179.78C249.94 178.841 250.52 176.187 251.055 173.877C251.587 171.571 252.039 169.116 252.053 168.419C252.071 167.725 251.965 167.105 251.823 167.042C251.678 166.977 250.964 167.196 250.233 167.523ZM319.73 275.28C319.736 275.477 319.864 276.532 320.018 277.627C320.168 278.722 320.291 281.604 320.291 284.027C320.288 286.743 320.112 289.477 319.83 291.138C319.58 292.626 319.062 294.93 318.678 296.258C318.294 297.589 317.446 299.893 316.795 301.378C316.141 302.866 314.793 305.298 313.794 306.782C312.799 308.27 311.166 310.415 310.165 311.547C309.092 312.761 308.521 313.609 308.771 313.609C309.007 313.609 309.997 313.285 310.975 312.884C311.954 312.485 313.971 311.834 315.455 311.439C317.407 310.915 319.184 310.673 321.855 310.563C324.114 310.471 326.384 310.543 327.686 310.75C328.861 310.935 329.916 311.146 330.033 311.211C330.149 311.279 329.874 311.942 329.416 312.684C328.961 313.43 327.828 314.869 326.907 315.884C325.982 316.903 324.563 318.214 323.755 318.8C322.945 319.389 322.313 319.929 322.353 320C322.393 320.074 323.96 319.75 325.837 319.278C327.715 318.806 330.403 317.964 331.811 317.4C333.219 316.84 334.851 316.14 335.437 315.85C336.023 315.557 336.663 315.315 336.859 315.313C337.13 315.313 337.164 315.728 337.002 317.019C336.885 317.961 336.564 319.406 336.291 320.228C336.018 321.053 335.346 322.475 334.797 323.385C334.251 324.298 332.778 326.133 331.526 327.467C329.481 329.643 329.336 329.865 330.104 329.677C330.573 329.56 332.365 328.895 334.086 328.198C335.807 327.498 338.111 326.403 339.206 325.766C340.301 325.129 341.903 324.088 342.762 323.456C343.623 322.825 344.838 321.829 345.464 321.243L346.602 320.179C347.133 321.812 347.449 323.246 347.643 324.418C347.839 325.592 347.995 328.343 347.99 330.533C347.984 333.03 347.808 335.42 347.515 336.933C347.256 338.264 346.704 340.375 346.289 341.626C345.873 342.878 345.085 344.798 344.537 345.893C343.988 346.988 343.109 348.558 342.582 349.377C342.056 350.199 340.793 351.832 339.775 353.004L337.926 355.137C340.46 354.011 342.605 352.751 344.326 351.607C346.047 350.464 348.527 348.518 349.838 347.284C351.15 346.049 352.945 344.081 353.826 342.906C354.708 341.734 356.022 339.621 356.745 338.213C357.47 336.805 358.446 334.438 358.915 332.951C359.381 331.466 359.939 329.29 360.147 328.115C360.357 326.943 360.525 324.19 360.522 322C360.516 319.309 360.351 317.235 360.01 315.6C359.734 314.272 359.123 312.03 358.653 310.622C358.184 309.214 357.043 306.526 356.116 304.649C355.192 302.772 354.142 300.758 353.789 300.169C353.434 299.583 352.185 297.791 351.013 296.187C349.841 294.585 347.475 291.818 345.751 290.037C344.03 288.26 341.405 285.887 339.917 284.767C338.432 283.649 336.128 282.073 334.797 281.265C333.469 280.46 331.165 279.226 329.677 278.52C328.193 277.815 325.408 276.72 323.491 276.083C321.574 275.445 319.944 274.925 319.864 274.925C319.787 274.925 319.728 275.087 319.73 275.28Z" fill="#FD7117"/>
<path d="M242.212 379.446C241.273 379.647 239.8 380.14 238.941 380.538C238.082 380.939 236.833 381.852 236.167 382.566C235.502 383.283 234.959 384.093 234.956 384.366C234.956 384.81 235.198 384.85 237.231 384.722C238.938 384.617 239.507 384.668 239.51 384.935C239.51 385.132 239.766 385.547 240.079 385.86C240.391 386.173 240.838 386.429 241.074 386.429C241.31 386.429 242.044 385.928 242.71 385.316C243.375 384.705 244.686 383.746 245.625 383.186C246.564 382.626 248.1 381.98 249.038 381.755C249.977 381.528 251.32 381.238 252.025 381.11L253.305 380.873C251.32 379.943 250.074 379.528 249.252 379.355C248.43 379.178 246.894 379.044 245.838 379.056C244.783 379.067 243.15 379.244 242.212 379.446ZM156.169 382.574C155.153 382.793 153.808 383.152 153.182 383.374C152.556 383.596 151.467 384.108 150.764 384.511C150.062 384.915 148.941 385.831 148.275 386.548C147.61 387.265 147.066 388.107 147.066 388.42C147.066 388.778 147.303 389.04 147.706 389.128C148.059 389.202 148.73 389.267 149.2 389.27C149.669 389.273 150.596 389.466 151.262 389.702L152.471 390.126C155.227 388.016 156.473 387.125 157.022 386.79C157.571 386.454 158.851 385.863 159.866 385.476C160.882 385.089 162.58 384.571 163.635 384.321C164.69 384.073 165.877 383.869 166.266 383.869C166.659 383.869 166.977 383.741 166.977 383.584C166.977 383.428 166.306 383.098 165.484 382.85C164.662 382.603 162.648 382.353 161.004 382.29C159.107 382.219 157.343 382.321 156.169 382.574ZM286.158 382.725C285.452 382.842 284.172 383.169 283.313 383.453C282.454 383.738 281.237 384.267 280.611 384.631C279.986 384.992 278.993 385.737 278.407 386.286C277.821 386.832 277.266 387.635 277.175 388.064C277.084 388.494 277.09 388.909 277.189 388.989C277.289 389.068 278.484 388.923 279.843 388.67C281.206 388.414 282.415 388.255 282.531 388.314C282.648 388.371 282.745 388.804 282.745 389.273C282.745 389.805 283.012 390.394 283.456 390.837C283.848 391.227 284.357 391.548 284.593 391.548C284.83 391.548 285.307 391.395 285.66 391.207C286.013 391.019 287.39 389.99 288.718 388.917C290.046 387.845 291.776 386.665 292.558 386.295C293.34 385.925 294.811 385.396 295.829 385.123C296.847 384.85 297.806 384.531 297.962 384.415C298.119 384.298 297.541 383.948 296.682 383.638C295.823 383.328 294.35 382.933 293.411 382.759C292.472 382.586 290.743 382.458 289.571 382.478C288.399 382.498 286.863 382.609 286.158 382.725ZM201.11 383.869C199.938 384.184 197.953 384.938 196.701 385.544C195.45 386.147 193.914 387.088 193.288 387.632C192.662 388.175 191.894 389.085 191.581 389.651C191.121 390.485 191.081 390.752 191.374 391.045C191.664 391.338 192.153 391.304 193.934 390.869C195.143 390.576 196.292 390.286 196.488 390.229C196.736 390.158 196.844 390.516 196.844 391.406C196.844 392.308 197.011 392.854 197.412 393.255C197.725 393.568 198.206 393.824 198.479 393.827C198.752 393.827 199.298 393.611 199.688 393.346C200.08 393.082 201.167 392.2 202.106 391.389C203.044 390.576 204.836 389.247 206.088 388.437C207.578 387.472 209.2 386.713 210.781 386.241C212.112 385.845 213.358 385.47 213.554 385.407C213.751 385.342 213.845 385.163 213.768 385.006C213.691 384.85 212.761 384.449 211.706 384.116C210.357 383.692 208.813 383.479 206.515 383.405C203.886 383.32 202.822 383.411 201.11 383.869Z" fill="#FB3936"/>
<path d="M181.501 57.8293C181.02 58.4153 180.195 59.9853 179.663 61.3133C179.134 62.6443 178.25 65.5233 177.698 67.7133C177.146 69.9033 176.498 73.0383 176.253 74.6823C176.011 76.3263 175.681 79.0763 175.519 80.7973C175.36 82.5183 175.226 85.2693 175.226 86.9133C175.226 88.5573 175.417 91.5323 175.653 93.5263C175.886 95.5203 176.321 98.2733 176.62 99.6413C176.916 101.01 177.49 103.123 177.9 104.335C178.307 105.546 179.106 107.466 179.675 108.601C180.244 109.736 181.185 111.369 181.768 112.228C182.351 113.087 183.552 114.529 184.433 115.428C185.312 116.327 186.706 117.447 187.528 117.914C188.35 118.383 189.118 118.767 189.235 118.767C189.351 118.77 189.144 118.161 188.768 117.419C188.396 116.677 187.437 114.501 186.635 112.583C185.836 110.666 184.735 107.594 184.192 105.757C183.648 103.919 183.105 101.809 182.983 101.069C182.863 100.33 182.829 99.7273 182.906 99.7303C182.983 99.7323 183.623 100.159 184.328 100.68C185.034 101.197 186.823 102.332 188.31 103.197C189.798 104.064 192.165 105.35 193.573 106.056C194.981 106.761 196.966 107.674 197.981 108.081C198.997 108.49 199.862 108.82 199.901 108.817C199.941 108.817 199.179 107.631 198.212 106.184C197.242 104.736 195.845 102.4 195.106 100.992C194.366 99.5843 193.248 97.2183 192.62 95.7303C191.991 94.2463 191.212 92.1013 190.887 90.9663C190.338 89.0373 190.333 88.9043 190.799 88.9073C191.072 88.9073 192.577 89.3473 194.141 89.8853C195.706 90.4233 197.02 90.8383 197.063 90.8073C197.105 90.7783 196.431 89.2173 195.566 87.3393C194.705 85.4623 194.062 83.8633 194.144 83.7843C194.227 83.7043 194.958 83.9603 195.768 84.3533C196.582 84.7423 198.018 85.5623 198.966 86.1673C199.91 86.7733 201.451 87.9173 202.39 88.7073C203.329 89.4983 204.91 90.9203 205.906 91.8703C207.345 93.2473 207.669 93.4523 207.502 92.8863C207.388 92.4963 206.719 90.8953 206.017 89.3303C205.317 87.7663 203.989 84.9813 203.07 83.1443C202.148 81.3063 200.541 78.3623 199.5 76.6023C198.459 74.8413 196.713 72.0593 195.621 70.4153C194.531 68.7713 192.79 66.3423 191.755 65.0143C190.722 63.6853 189.107 61.7773 188.168 60.7733C187.23 59.7693 185.853 58.4543 185.11 57.8543C184.368 57.2543 183.446 56.7623 183.068 56.7623C182.613 56.7623 182.075 57.1293 181.501 57.8293ZM240.932 133.484C241.478 133.544 242.439 133.544 243.065 133.484C243.691 133.422 243.244 133.373 242.07 133.373C240.895 133.373 240.386 133.422 240.932 133.484ZM317.873 310.898C316.778 311.097 315.051 311.524 314.033 311.845C313.015 312.167 311.257 312.759 310.122 313.162C308.688 313.672 307.195 314.545 305.215 316.03C303.651 317.201 301.461 319.028 300.346 320.083C299.231 321.138 297.456 323.089 296.401 324.421C295.343 325.749 293.903 327.734 293.198 328.829C292.492 329.924 291.147 332.356 290.208 334.234C289.27 336.111 287.921 339.246 287.213 341.203C286.508 343.157 285.538 346.357 285.06 348.314C284.585 350.268 283.99 353.084 283.743 354.571C283.496 356.056 283.362 357.305 283.444 357.345C283.53 357.384 285.293 356.787 287.367 356.016C289.44 355.248 293.886 353.758 297.251 352.708C300.616 351.659 303.591 350.754 303.864 350.694C304.137 350.637 304.359 350.686 304.359 350.802C304.356 350.919 303.822 351.912 303.173 353.007C302.525 354.102 300.923 356.085 299.618 357.416C298.309 358.744 297.274 359.85 297.317 359.87C297.359 359.893 298.739 360.149 300.38 360.439C302.769 360.866 304.789 360.971 310.478 360.968C316.041 360.968 318.268 360.855 320.717 360.445C322.438 360.158 325.254 359.563 326.975 359.122C328.696 358.679 331.768 357.677 333.802 356.892C337.246 355.564 337.605 355.353 339.041 353.809C339.889 352.899 341.106 351.448 341.746 350.589C342.383 349.727 343.498 347.873 344.224 346.465C344.949 345.057 345.879 342.881 346.294 341.629C346.707 340.378 347.256 338.264 347.515 336.936C347.808 335.42 347.984 333.033 347.99 330.536C347.992 328.346 347.839 325.592 347.643 324.421C347.449 323.246 347.133 321.812 346.946 321.235L346.602 320.182C344.838 321.829 343.621 322.825 342.762 323.456C341.903 324.091 340.301 325.129 339.206 325.769C338.111 326.406 335.807 327.501 334.086 328.198C332.365 328.898 330.573 329.563 330.104 329.677C329.336 329.868 329.478 329.646 331.526 327.467C332.778 326.136 334.251 324.301 334.797 323.388C335.343 322.475 336.018 321.056 336.291 320.231C336.564 319.406 336.885 317.964 337.002 317.022C337.164 315.728 337.127 315.313 336.859 315.316C336.663 315.318 336.023 315.557 335.437 315.85C334.851 316.143 333.219 316.84 331.811 317.403C330.403 317.964 327.715 318.809 325.837 319.278C323.96 319.75 322.393 320.074 322.353 320.003C322.313 319.929 322.945 319.389 323.752 318.803C324.563 318.217 325.98 316.903 326.904 315.887C327.828 314.869 328.958 313.43 329.416 312.687C329.874 311.945 330.149 311.282 330.033 311.217C329.916 311.149 328.989 310.958 327.971 310.79C326.952 310.625 324.714 310.497 322.993 310.511C321.272 310.523 318.968 310.699 317.873 310.898Z" fill="#FDF7E1"/>
<path d="M305.122 130.071C305.096 130.108 304.624 130.199 304.078 130.275C303.532 130.352 302.764 130.48 302.371 130.563C301.981 130.642 301.085 130.784 300.38 130.876C299.677 130.967 298.588 131.097 297.962 131.168C297.336 131.24 296.25 131.362 295.544 131.442C294.842 131.518 293.69 131.641 292.984 131.709C292.282 131.777 291.064 131.897 290.282 131.976C289.5 132.053 287.771 132.187 286.442 132.275C285.114 132.36 283.194 132.497 282.176 132.579C281.157 132.662 279.237 132.79 277.909 132.864C276.581 132.938 271.779 133.057 267.243 133.131C262.706 133.205 253.939 133.342 247.758 133.433C241.58 133.524 236.076 133.64 235.527 133.691C234.981 133.743 233.38 133.871 231.972 133.976C230.564 134.081 228.965 134.215 228.416 134.272C227.87 134.329 226.718 134.451 225.856 134.539C224.997 134.63 223.845 134.767 223.297 134.841C222.75 134.917 221.789 135.045 221.163 135.125C220.537 135.205 219.707 135.333 219.314 135.407C218.925 135.483 217.963 135.665 217.181 135.816C216.399 135.967 215.247 136.158 214.621 136.24C213.995 136.323 213.227 136.445 212.914 136.513C212.602 136.581 212.027 136.709 211.634 136.803C211.245 136.894 210.605 137.025 210.212 137.096C209.823 137.167 209.086 137.361 208.577 137.526C208.068 137.691 207.652 137.762 207.652 137.685C207.652 137.608 207.428 137.659 207.155 137.799C206.881 137.941 206.273 138.126 205.803 138.211C205.334 138.297 204.341 138.564 203.599 138.809C202.857 139.05 202.254 139.153 202.259 139.036C202.268 138.919 202.055 139.013 201.79 139.249C201.525 139.483 201.23 139.648 201.139 139.614C201.045 139.579 200.456 139.687 199.83 139.855C199.204 140.023 198.564 140.239 198.408 140.336C198.252 140.433 197.933 140.544 197.697 140.583C197.464 140.62 197.08 140.743 196.844 140.851C196.61 140.959 196.32 141.093 196.204 141.144C196.087 141.198 195.928 141.241 195.848 141.241C195.771 141.241 195.609 141.283 195.493 141.337C195.376 141.388 195.023 141.528 194.71 141.647C194.397 141.764 193.823 141.994 193.43 142.159C193.041 142.324 192.304 142.631 191.795 142.845C191.286 143.058 190.455 143.408 189.946 143.621C189.437 143.837 188.063 144.475 186.888 145.038C185.716 145.604 184.249 146.355 183.631 146.71C183.014 147.066 182.371 147.484 182.203 147.64C182.036 147.797 181.484 148.115 180.98 148.352C180.474 148.585 180.062 148.875 180.062 148.992C180.062 149.108 179.934 149.139 179.777 149.063C179.621 148.986 178.372 150.107 177.004 151.554C175.636 153.005 174.228 154.604 173.875 155.11C173.289 155.955 173.275 156.043 173.733 156.174C174.006 156.25 174.487 156.373 174.799 156.441C175.112 156.512 175.784 156.706 176.293 156.871C176.802 157.036 177.248 157.158 177.288 157.146C177.328 157.132 177.681 157.195 178.071 157.286C178.463 157.374 179.103 157.493 179.493 157.548C179.885 157.604 180.332 157.724 180.488 157.812C180.645 157.9 181.35 158.045 182.053 158.136C182.758 158.224 183.717 158.37 184.186 158.455C184.655 158.543 185.233 158.668 185.466 158.734C185.702 158.802 186.789 158.938 187.884 159.038C188.979 159.138 190.452 159.26 191.155 159.308C191.86 159.357 193.618 159.408 195.066 159.419C197.026 159.439 197.671 159.536 197.597 159.8C197.543 159.997 196.679 160.571 195.677 161.077C194.676 161.587 193.76 162.002 193.644 162.002C193.527 162.005 193.078 162.153 192.648 162.335C192.219 162.517 191.769 162.645 191.653 162.619C191.536 162.593 190.646 163.629 189.673 164.92C188.703 166.212 187.835 167.332 187.744 167.409C187.653 167.486 186.47 169.278 185.11 171.391C183.751 173.502 182.539 175.359 182.417 175.516C182.294 175.672 181.825 176.505 181.37 177.364C180.918 178.223 180.448 179.057 180.332 179.213C180.212 179.37 179.479 180.778 178.696 182.342C177.917 183.907 177.012 185.761 176.682 186.467C176.355 187.172 176.085 187.843 176.082 187.96C176.082 188.077 175.966 188.461 175.829 188.813C175.693 189.166 175.565 189.55 175.545 189.667C175.525 189.783 175.32 190.264 175.084 190.733C174.851 191.203 174.58 192.067 174.484 192.653C174.387 193.239 174.185 194.038 174.031 194.431C173.878 194.821 173.696 195.461 173.63 195.853C173.565 196.243 173.374 197.204 173.209 197.986C173.044 198.769 172.837 199.983 172.749 200.689C172.658 201.394 172.604 202.768 172.626 203.746C172.649 204.767 172.547 205.524 172.382 205.524C172.225 205.524 171.81 205.129 171.457 204.645C171.105 204.164 170.675 203.618 170.504 203.436C170.331 203.254 169.722 202.242 169.153 201.186C168.582 200.131 168.212 199.272 168.328 199.278C168.445 199.286 168.394 199.127 168.212 198.922C168.027 198.72 167.868 198.459 167.856 198.342C167.842 198.225 167.822 198.097 167.808 198.058C167.797 198.018 167.723 197.73 167.643 197.418C167.566 197.105 167.447 196.496 167.381 196.066C167.313 195.614 167.083 195.284 166.835 195.284C166.602 195.284 166.346 195.54 166.266 195.853C166.189 196.166 165.996 196.422 165.84 196.422C165.683 196.422 165.555 196.613 165.555 196.849C165.555 197.085 165.427 197.275 165.271 197.275C165.114 197.275 164.986 197.466 164.986 197.702C164.986 197.938 164.89 198.129 164.773 198.129C164.656 198.126 164.432 198.368 164.275 198.661C164.119 198.956 163.245 200.717 162.335 202.574C161.425 204.432 160.56 206.175 160.415 206.449C160.27 206.722 160.151 207.074 160.151 207.231C160.151 207.387 159.969 207.93 159.75 208.44C159.528 208.949 159.181 209.876 158.979 210.502C158.777 211.128 158.572 211.736 158.527 211.853C158.481 211.97 158.436 212.098 158.421 212.137C158.41 212.177 158.362 212.399 158.313 212.635C158.265 212.871 158.06 213.636 157.861 214.342C157.659 215.047 157.46 215.75 157.417 215.906C157.375 216.063 157.261 216.509 157.167 216.902C157.073 217.291 156.945 217.931 156.885 218.324C156.826 218.714 156.629 219.675 156.45 220.457C156.268 221.239 156.069 222.135 156.006 222.448C155.941 222.761 155.813 223.529 155.719 224.155C155.622 224.781 155.5 225.611 155.446 226.004C155.389 226.394 155.278 227.227 155.193 227.853C155.11 228.478 154.948 229.949 154.835 231.124C154.721 232.296 154.633 236.969 154.638 241.506C154.647 246.043 154.749 250.585 154.866 251.603C154.985 252.622 155.133 253.836 155.196 254.306C155.258 254.775 155.372 255.671 155.446 256.297C155.52 256.923 156.086 258.905 156.706 260.706C157.323 262.506 158.097 264.585 158.421 265.328C158.748 266.07 159.013 266.744 159.013 266.821C159.013 266.898 159.187 267.316 159.4 267.745C159.61 268.175 160.538 270.098 161.462 272.015C162.384 273.932 163.234 275.502 163.351 275.499C163.467 275.496 163.641 275.784 163.735 276.136C163.826 276.489 164.426 277.672 165.063 278.768C165.7 279.863 166.326 280.79 166.457 280.83C166.588 280.87 166.693 281.029 166.693 281.185C166.693 281.342 167.748 283.02 169.04 284.917C170.331 286.814 171.742 288.766 172.174 289.255C172.609 289.744 172.962 290.211 172.959 290.287C172.956 290.364 173.369 290.885 173.875 291.439C174.384 291.997 175.178 292.955 175.639 293.573C176.099 294.19 178.284 296.488 180.491 298.678C182.698 300.869 184.937 303.045 185.463 303.514C185.989 303.983 186.831 304.686 187.332 305.078C187.835 305.468 188.532 305.98 188.882 306.216C189.232 306.452 189.693 306.802 189.909 306.998C190.125 307.195 190.429 307.354 190.586 307.354C190.742 307.354 190.87 307.482 190.87 307.638C190.87 307.795 190.998 307.923 191.155 307.923C191.311 307.923 191.627 308.082 191.857 308.278C192.085 308.475 192.438 308.768 192.64 308.932C192.839 309.097 193.453 309.481 193.999 309.786C194.548 310.09 195.06 310.417 195.137 310.511C195.217 310.602 195.615 310.858 196.022 311.08C196.431 311.299 197.583 311.905 198.582 312.423C199.583 312.943 200.558 313.296 200.755 313.205C200.951 313.117 201.11 312.852 201.11 312.616C201.11 312.38 201.213 312.158 201.341 312.118C201.466 312.078 201.978 311.438 202.478 310.696C202.976 309.954 203.386 309.279 203.386 309.203C203.386 309.126 203.701 308.645 204.088 308.136C204.475 307.627 204.797 307.115 204.799 306.998C204.805 306.882 205.181 306.242 205.638 305.576C206.094 304.91 206.614 304.046 206.796 303.656C206.975 303.264 207.496 302.305 207.948 301.523C208.403 300.741 209.569 298.499 210.537 296.545C211.506 294.588 212.457 292.606 212.65 292.136C212.84 291.667 213.324 290.578 213.719 289.719C214.115 288.86 214.718 287.449 215.062 286.59C215.403 285.731 215.861 284.61 216.077 284.101C216.294 283.592 216.47 283.048 216.47 282.892C216.47 282.736 216.592 282.383 216.74 282.11C216.888 281.837 217.42 280.332 217.923 278.768C218.427 277.203 218.819 275.892 218.794 275.852C218.765 275.812 218.947 275.238 219.198 274.572C219.445 273.906 219.713 272.979 219.792 272.51C219.872 272.041 220.085 271.492 220.264 271.29C220.446 271.085 220.498 270.926 220.381 270.934C220.264 270.94 220.301 270.53 220.466 270.021C220.631 269.512 220.825 268.872 220.893 268.599C220.964 268.326 221.086 267.814 221.169 267.461C221.249 267.108 221.382 266.372 221.468 265.826C221.55 265.279 221.687 264.639 221.772 264.403C221.854 264.167 221.98 263.527 222.048 262.981C222.119 262.435 222.236 261.795 222.31 261.559C222.383 261.323 222.509 260.811 222.588 260.421C222.671 260.029 222.802 259.198 222.881 258.572C222.964 257.947 223.083 257.244 223.151 257.008C223.22 256.772 223.342 256.197 223.422 255.728C223.501 255.259 223.635 254.363 223.718 253.737C223.803 253.111 223.934 252.184 224.01 251.675C224.087 251.165 224.221 250.335 224.306 249.826C224.392 249.317 224.508 248.645 224.565 248.332C224.619 248.02 224.741 247.189 224.838 246.484C224.932 245.778 225.089 244.82 225.182 244.35C225.279 243.881 225.396 243.241 225.441 242.928C225.487 242.615 225.603 241.719 225.703 240.937C225.802 240.155 225.956 239.259 226.047 238.946C226.138 238.633 226.26 238.024 226.317 237.595C226.377 237.165 226.491 236.429 226.568 235.959C226.647 235.49 226.77 234.753 226.841 234.324C226.915 233.894 227.045 233.22 227.131 232.83C227.219 232.438 227.355 231.67 227.435 231.124C227.515 230.578 227.651 229.807 227.739 229.417C227.828 229.025 227.956 228.45 228.021 228.137C228.089 227.824 228.212 227.119 228.3 226.573C228.385 226.027 228.641 224.809 228.869 223.871C229.093 222.932 229.347 221.908 229.432 221.595C229.514 221.282 229.637 220.77 229.702 220.457C229.768 220.144 230.208 218.287 230.681 216.333C231.153 214.376 231.929 211.497 232.404 209.933C232.879 208.369 233.317 206.898 233.38 206.662C233.443 206.426 233.502 206.204 233.514 206.164C233.528 206.124 233.602 205.965 233.679 205.809C233.758 205.652 233.821 205.459 233.821 205.382C233.821 205.305 233.858 205.143 233.903 205.026C233.949 204.91 234.347 203.724 234.791 202.395C235.235 201.067 235.758 199.594 235.951 199.124C236.148 198.655 236.742 197.136 237.268 195.748C237.797 194.36 238.326 193.174 238.443 193.117C238.56 193.057 238.656 192.818 238.656 192.582C238.656 192.346 239.111 191.163 239.669 189.951C240.226 188.739 240.901 187.237 241.162 186.612C241.427 185.989 242.65 183.429 243.879 180.923C245.107 178.42 246.413 175.729 246.78 174.947C247.144 174.165 247.721 172.757 248.06 171.818C248.398 170.879 248.726 169.696 248.785 169.187C248.848 168.678 248.799 168.265 248.683 168.271C248.566 168.277 247.895 168.589 247.19 168.965C246.487 169.343 245.045 170.043 243.99 170.521C242.934 170.999 241.942 171.391 241.785 171.391C241.629 171.391 241.213 171.505 240.861 171.642C240.508 171.778 240.124 171.906 240.007 171.926C239.891 171.946 239.057 172.202 238.159 172.498C237.26 172.794 236.369 172.953 236.185 172.853C235.96 172.734 236.295 172.142 237.18 171.107C237.914 170.248 238.901 169.158 239.373 168.689C239.845 168.22 240.747 167.386 241.378 166.84C242.007 166.291 243.094 165.398 243.79 164.852C244.487 164.309 245.201 163.731 245.378 163.572C245.554 163.416 245.984 163.091 246.336 162.858C246.686 162.622 247.468 162.079 248.077 161.649C248.683 161.22 249.246 160.867 249.323 160.867C249.402 160.867 250.074 160.457 250.816 159.96C251.559 159.459 253.129 158.62 254.301 158.091C255.475 157.562 256.849 156.944 257.358 156.723C257.867 156.498 258.698 156.137 259.207 155.921C259.716 155.701 260.453 155.397 260.843 155.246C261.235 155.093 261.875 154.834 262.265 154.669C262.657 154.504 263.616 154.146 264.398 153.873C265.18 153.597 265.948 153.289 266.105 153.187C266.261 153.085 266.967 152.84 267.669 152.641C268.375 152.442 269.333 152.112 269.803 151.904C270.272 151.699 271.552 151.247 272.647 150.9C273.742 150.55 274.803 150.124 275.005 149.95C275.227 149.76 275.363 149.745 275.349 149.916C275.335 150.072 275.528 150.007 275.776 149.774C276.023 149.538 276.217 149.475 276.202 149.632C276.188 149.788 276.382 149.723 276.629 149.489C276.877 149.253 277.07 149.191 277.056 149.347C277.042 149.504 277.235 149.438 277.482 149.205C277.73 148.969 277.923 148.906 277.909 149.063C277.895 149.233 278.031 149.219 278.253 149.031C278.455 148.858 278.942 148.639 279.331 148.548C279.724 148.457 280.426 148.226 280.896 148.036C281.365 147.845 281.814 147.666 281.891 147.64C281.971 147.612 282.224 147.515 282.46 147.424C282.696 147.333 283.592 147.04 284.451 146.77C285.313 146.503 286.144 146.207 286.3 146.113C286.457 146.019 286.65 145.928 286.727 145.914C286.806 145.897 287.06 145.809 287.296 145.718C287.532 145.627 288.234 145.396 288.86 145.211C289.486 145.024 290.447 144.682 290.993 144.455C291.54 144.224 292.214 143.92 292.487 143.778C292.76 143.633 293.112 143.516 293.269 143.516C293.425 143.516 293.969 143.343 294.478 143.129C294.987 142.916 295.786 142.575 296.256 142.37C296.725 142.168 297.299 141.957 297.536 141.909C297.772 141.858 298.54 141.553 299.242 141.232C299.948 140.911 301.228 140.327 302.087 139.935C302.948 139.545 305.218 138.43 307.135 137.46C309.05 136.488 310.62 135.597 310.62 135.481C310.62 135.364 310.844 135.205 311.118 135.128C311.391 135.051 311.999 134.733 312.469 134.42C312.938 134.107 313.481 133.785 313.678 133.706C313.874 133.626 314.033 133.433 314.033 133.276C314.033 133.12 313.936 133.049 313.82 133.117C313.703 133.185 312.708 133.026 311.61 132.761C310.321 132.451 309.186 131.954 308.41 131.356C307.747 130.847 307.206 130.304 307.206 130.147C307.206 129.991 306.749 129.894 306.188 129.934C305.628 129.974 305.15 130.034 305.122 130.071Z" fill="#FCFCFC"/>
<path d="M250.745 111.11C249.337 111.224 247.354 111.465 246.336 111.647C245.318 111.832 243.463 112.239 242.212 112.558C240.96 112.873 238.335 113.641 236.381 114.264C234.424 114.887 232.76 115.453 232.683 115.524C232.606 115.595 233.053 116.176 233.679 116.819C234.304 117.461 235.778 118.756 236.95 119.694C238.124 120.633 240.235 122.086 241.643 122.923C243.051 123.762 245.417 124.942 246.905 125.548C248.393 126.154 250.887 126.984 252.452 127.394C254.016 127.801 256.511 128.284 257.998 128.466C259.622 128.663 262.234 128.725 264.54 128.623C266.651 128.529 269.211 128.267 270.229 128.043C271.247 127.821 272.462 127.482 272.931 127.292L273.785 126.947C271.521 126.453 270.562 126.032 270.192 125.696C269.822 125.36 269.302 124.592 269.035 123.989C268.77 123.386 268.235 121.808 267.846 120.476C267.399 118.952 266.682 117.382 265.909 116.224C265.234 115.217 264.108 113.971 263.403 113.456C262.697 112.942 261.451 112.262 260.629 111.946C259.807 111.633 258.337 111.306 257.358 111.224C256.38 111.138 255.069 111.033 254.443 110.988C253.817 110.939 252.153 110.996 250.745 111.11Z" fill="#010107"/>
<path d="M251.598 114.813C251.129 114.958 250.389 115.428 249.954 115.857C249.522 116.287 249.033 117.02 248.873 117.49C248.666 118.09 248.677 118.679 248.905 119.481C249.081 120.107 249.377 120.821 249.559 121.068C249.741 121.313 250.213 121.719 250.603 121.967C251.049 122.251 251.854 122.402 252.759 122.374C253.817 122.337 254.463 122.129 255.177 121.594C255.711 121.193 256.286 120.491 256.454 120.03C256.622 119.572 256.735 118.812 256.704 118.343C256.676 117.874 256.633 117.362 256.613 117.205C256.593 117.049 256.289 116.58 255.936 116.159C255.583 115.74 254.722 115.194 254.016 114.944C253.311 114.697 252.671 114.506 252.594 114.523C252.517 114.537 252.068 114.671 251.598 114.813Z" fill="#FCFCFC"/>
</svg>
