<svg width="300" height="858" viewBox="0 0 300 858" fill="none" xmlns="http://www.w3.org/2000/svg">
<mask id="mask0_18_91" style="mask-type:alpha" maskUnits="userSpaceOnUse" x="0" y="102" width="300" height="653">
<path d="M0 102.5L150 106.5L300 102.5V754.5L150 744L0 754.5V102.5Z" fill="white"/>
</mask>
<g mask="url(#mask0_18_91)">
<mask id="path-2-inside-1_18_91" fill="white">
<path d="M0 102.5H300V754.5H0V102.5Z"/>
</mask>
<path d="M0 102.5H300V754.5H0V102.5Z" fill="white"/>
<path d="M300 102.5H290V754.5H300H310V102.5H300ZM0 754.5H10V102.5H0H-10V754.5H0Z" fill="black" mask="url(#path-2-inside-1_18_91)"/>
</g>
<path d="M53.033 580.728V567.49V552.929C49.6068 551.955 46.3752 550.904 43.2993 549.814C43.1047 549.736 42.91 549.697 42.7542 549.619C41.4694 549.152 40.2235 548.685 39.0165 548.218V553.123V563.168V583.999V670.005V673.393V686.241C42.7153 683.788 46.9981 681.491 51.7871 679.35C52.1765 678.454 52.6047 677.559 53.033 676.624C55.408 671.524 58.1724 666.19 61.3261 660.7C65.1028 654.12 69.4245 647.345 74.2525 640.415C77.9123 645.087 81.7279 649.72 85.7382 654.354C87.7239 656.651 89.7485 658.948 91.812 661.206C93.3694 662.958 94.9657 664.671 96.601 666.423C96.6399 666.462 96.6789 666.54 96.7567 666.579C99.7158 666.073 102.753 665.606 105.829 665.178V655.755V651.044V601.597V581.39V576.679V562.584C101.04 562.117 96.3674 561.533 91.812 560.91V575.044V596.107V617.482V639.831C88.6972 636.093 85.7382 632.356 82.896 628.657C79.8591 624.685 76.9779 620.792 74.2914 616.898C71.2155 620.831 68.2565 624.763 65.4143 628.657C60.9368 634.886 56.7708 641.077 53.033 647.19V610.124V580.728Z" fill="black"/>
<path d="M74.6418 676.741C51.865 683.048 43.2604 689.745 33.7603 696.014V540.469C42.5206 543.896 53.1109 548.49 74.8754 552.773C76.1603 551.332 78.6131 548.451 82.8181 545.336C56.615 540.781 46.9203 537.043 25 527.582V712.25C43.8444 698.973 57.0044 690.368 82.1562 683.905C78.3795 681.024 76.1992 678.454 74.6418 676.741Z" fill="black"/>
<path d="M126.269 649.097V663.153C133.978 662.608 141.882 662.335 150.019 662.335C158.157 662.335 166.061 662.608 173.77 663.153V649.097C168.28 648.747 162.673 648.513 157.028 648.397V578.703C162.673 578.626 168.241 578.431 173.77 578.158V564.142C166.061 564.531 158.118 564.765 150.019 564.765C141.921 564.765 133.978 564.57 126.269 564.142V578.158C131.759 578.431 137.366 578.626 143.011 578.703V648.358C137.366 648.475 131.759 648.747 126.269 649.097Z" fill="black"/>
<path d="M221.543 675.807C201.024 670.551 176.145 667.592 150.019 667.592C123.894 667.592 99.0149 670.551 78.4963 675.807C86.6337 684.801 98.392 690.485 111.474 690.485C121.325 690.485 130.435 687.254 137.794 681.842C136.898 685.385 136.431 689.045 136.431 692.86C136.431 705.436 141.648 716.766 150.019 724.826C158.39 716.766 163.608 705.397 163.608 692.86C163.608 689.045 163.14 685.346 162.245 681.842C169.604 687.293 178.714 690.485 188.565 690.485C201.647 690.485 213.405 684.801 221.543 675.807Z" fill="black"/>
<path d="M78.9246 553.552C100.027 557.406 124.439 559.47 150.019 559.47C175.6 559.47 200.012 557.406 221.114 553.552C213.016 544.83 201.413 539.34 188.565 539.34C178.714 539.34 169.604 542.572 162.245 547.984C163.14 544.441 163.608 540.781 163.608 536.965C163.608 524.39 158.39 513.059 150.019 505C141.649 513.059 136.431 524.428 136.431 536.965C136.431 540.781 136.898 544.48 137.794 547.984C130.435 542.533 121.325 539.34 111.474 539.34C98.6256 539.34 87.023 544.83 78.9246 553.552Z" fill="black"/>
<path d="M247.006 678.805C252.301 681.102 257.012 683.594 261.022 686.241V670.784V670.006V639.87V563.13V548.179C256.74 549.853 252.067 551.449 247.006 552.89V567.451V613.667C238.869 600.468 229.018 586.958 217.805 573.603C214.69 569.904 211.497 566.205 208.188 562.585C207.721 562.078 207.254 561.572 206.825 561.066C202.698 561.611 198.493 562.117 194.172 562.546V568.035V576.64V651.044V665.178C198.999 665.84 203.672 666.579 208.188 667.436V653.186V583.999C225.319 604.634 238.635 625.153 247.006 643.141V663.698V678.805Z" fill="black"/>
<path d="M225.125 552.812C246.733 548.568 257.246 544.013 266.24 540.508V696.053C256.779 689.784 248.174 683.126 225.358 676.78C223.957 678.376 221.698 680.985 217.844 683.983C242.295 690.368 257.908 699.868 275 712.328V527.621C253.352 536.771 243.307 540.82 217.182 545.375C221.192 548.334 223.489 550.943 225.125 552.812Z" fill="black"/>
<path d="M129 98L130.5 52.5L148 9.5L171.5 44.5L174.5 94.5L233 78.5L278.5 90L281.5 98L145 108.5L17.5 98L37 86L65.5 78.5L129 98Z" fill="#C34100"/>
<path d="M150 15.7827C161.665 30.4146 167.99 48.4167 167.99 67.4875C167.99 74.4746 167.087 81.3796 165.444 88.1201L161.336 104.314C157.558 104.396 153.779 104.396 150 104.396C146.221 104.396 142.443 104.396 138.664 104.314L134.556 88.1201C132.831 81.3796 132.01 74.4746 132.01 67.4875C132.01 48.4167 138.335 30.4146 150 15.7827ZM231.325 83.188C243.072 83.188 254.409 85.5718 265.088 90.3395C268.62 91.9014 271.988 93.7098 275.274 95.7648C244.305 100.286 210.624 103.081 175.876 103.985L182.202 99.3817C196.495 88.7777 213.499 83.188 231.325 83.188ZM68.6747 83.188C86.5006 83.188 103.505 88.7777 117.881 99.3817L124.206 103.985C89.54 103.081 55.8598 100.286 24.8083 95.7648C28.0121 93.7098 31.4622 91.9014 34.9945 90.3395C45.5915 85.654 56.9277 83.188 68.6747 83.188ZM150 0C132.338 17.0157 121.331 41.0186 121.331 67.4875C121.331 75.5432 122.317 83.3524 124.206 90.7505C108.68 79.2423 89.4578 72.5018 68.6747 72.5018C41.5663 72.5018 17.0865 84.0922 0 102.505C44.5236 110.643 96.0296 115 150 115C203.97 115 255.476 110.643 300 102.505C282.913 84.0922 258.434 72.5018 231.325 72.5018C210.542 72.5018 191.32 79.3245 175.794 90.7505C177.683 83.2702 178.669 75.5432 178.669 67.4875C178.669 41.0186 167.662 17.0157 150 0Z" fill="black"/>
<path d="M170.5 757.5V803L166 826L151.5 846L137 829.5L128 811L125 761L97.5 775L66.5 777L42.5 775L21 765.5L18 757.5L148.5 741.5L282 757.5L262.5 769.5L234 777L198 771.5L170.5 757.5Z" fill="#C34100"/>
<path d="M149.959 747.882C153.224 747.882 156.49 747.882 159.755 747.964L165.306 769.76C167.02 776.454 167.837 783.311 167.837 790.25C167.837 809.188 161.551 827.066 149.959 841.597C138.367 827.066 132.082 809.188 132.082 790.25C132.082 783.311 132.98 776.454 134.612 769.76L140.163 747.964C143.429 747.882 146.694 747.882 149.959 747.882ZM167.673 748.127C206.612 749.107 243.918 753.188 277.388 760.209C263.755 769.515 247.51 774.658 230.776 774.658C213.061 774.658 196.163 769.107 181.878 758.576L167.673 748.127ZM132.245 748.127L118.041 758.658C103.837 769.188 86.9388 774.739 69.1429 774.739C52.4082 774.739 36.1633 769.597 22.5306 760.29C56 753.188 93.3061 749.025 132.245 748.127ZM149.959 737.27C95.1837 737.27 43.0204 743.474 0 754.494C17.0612 773.352 41.7143 785.27 69.1429 785.27C89.7959 785.27 108.898 778.494 124.327 767.148C122.449 774.576 121.469 782.25 121.469 790.25C121.469 816.617 132.408 840.372 149.959 857.27C167.51 840.372 178.449 816.535 178.449 790.25C178.449 782.25 177.469 774.494 175.592 767.148C191.02 778.576 210.122 785.27 230.776 785.27C258.204 785.27 282.857 773.352 299.918 754.494C256.898 743.474 204.735 737.27 149.959 737.27Z" fill="black"/>
<path d="M79.4927 140.533C78.9437 140.872 78.0051 141.614 77.4021 142.186C76.8019 142.758 75.7637 143.927 75.0981 144.788C74.4325 145.648 73.2948 147.377 72.5723 148.628C71.8469 149.88 70.6125 152.343 69.8274 154.104C69.0424 155.865 67.6372 159.577 66.7014 162.353C65.7684 165.129 64.497 169.384 63.8769 171.81C63.2568 174.234 62.4206 178.011 62.0195 180.201C61.6185 182.392 61.1036 185.592 60.8789 187.312C60.6542 189.033 60.3214 192.555 60.1365 195.134C59.8862 198.667 59.8834 201.094 60.1223 204.948C60.2987 207.764 60.6343 211.348 60.8704 212.912C61.1065 214.476 61.6298 217.23 62.0309 219.027C62.432 220.825 63.1971 223.644 63.729 225.285C64.2581 226.926 64.6961 228.431 64.699 228.627C64.699 228.824 63.9822 230.294 63.1004 231.898C62.2215 233.503 60.4124 236.478 59.0841 238.512C57.7558 240.545 55.5969 243.714 54.2856 245.552C52.9743 247.389 51.8394 249.087 51.7598 249.32C51.6574 249.63 52.34 250.091 54.2486 251.004C55.6964 251.696 57.9037 252.665 59.1552 253.16C60.4067 253.658 61.462 254.116 61.5018 254.182C61.5417 254.244 60.3954 256.187 58.9561 258.494C57.5168 260.8 55.4916 264.16 54.4534 265.96C53.4152 267.761 51.5294 271.151 50.2607 273.498C48.9893 275.845 46.7394 280.259 45.2603 283.311C43.7783 286.363 41.8015 290.712 40.8628 292.982C39.9242 295.252 38.5134 298.836 37.7255 300.946C36.9376 303.057 35.6576 306.897 34.881 309.48C34.1017 312.062 33.0748 315.771 32.597 317.728C32.122 319.682 31.4735 322.82 31.1577 324.697C30.842 326.574 30.4523 329.456 30.2902 331.097C30.128 332.738 29.9972 336.069 30 338.493C30 340.916 30.1366 344.372 30.2987 346.172C30.4637 347.973 31.0297 351.619 31.5616 354.279C32.0907 356.939 33.1829 361.29 33.9851 363.95C34.79 366.61 36.0302 370.321 36.7441 372.199C37.4581 374.076 38.6158 376.957 39.3155 378.599C40.0152 380.24 41.5825 383.571 42.797 385.994C44.0116 388.418 45.9998 392.132 47.2172 394.243C48.4318 396.353 50.3432 399.491 51.4611 401.212C52.5818 402.933 54.2259 405.333 55.119 406.545C56.0093 407.757 56.9622 408.832 57.2352 408.934C57.5823 409.065 57.9947 408.832 58.6034 408.152C59.0841 407.62 59.8834 406.13 60.3811 404.838C60.8818 403.547 61.5132 401.596 61.7863 400.501C62.0593 399.408 62.3466 398.507 62.4263 398.504C62.5059 398.498 63.1658 400.256 63.8968 402.412C64.6278 404.568 65.8026 408.508 66.5051 411.167C67.2106 413.827 68.3 418.307 68.9314 421.123C69.56 423.939 70.3963 427.972 70.7917 430.082C71.187 432.193 71.7673 435.714 72.0773 437.905C72.3902 440.095 72.7941 443.616 72.979 445.727C73.1611 447.837 73.2407 451.359 73.1554 453.549C73.0501 456.279 72.8112 458.248 72.3988 459.806C72.066 461.058 71.4942 462.722 71.1273 463.504C70.7604 464.286 70.018 465.438 69.4776 466.064C68.9371 466.69 67.8022 467.671 66.9546 468.243C65.7485 469.059 64.7957 469.412 62.5685 469.864C61.0041 470.186 58.5067 470.848 57.0219 471.338C55.5371 471.827 53.1023 472.803 51.6175 473.502C50.1328 474.202 47.8914 475.456 46.6398 476.29C45.3883 477.123 43.437 478.779 42.3021 479.97C41.1672 481.159 39.9213 482.775 39.5288 483.557C39.1391 484.339 38.8177 485.235 38.8177 485.548C38.8177 485.935 39.1619 486.265 39.8844 486.581C40.4703 486.834 42.5524 487.355 44.5065 487.739C47.4903 488.322 49.2282 488.458 55.3153 488.592C60.0626 488.697 63.7461 488.635 65.9818 488.41C67.8591 488.219 70.6096 487.807 72.0973 487.485C73.5849 487.167 76.0794 486.53 77.6438 486.066C79.2083 485.602 81.3217 484.76 82.3371 484.192C83.3526 483.626 84.7435 482.641 85.4261 482.007C86.1088 481.373 87.2807 480.025 88.0316 479.006C88.7825 477.988 89.9089 476.196 90.5347 475.024C91.1633 473.849 92.0792 471.739 92.5713 470.331C93.0634 468.923 93.7062 466.747 93.9992 465.495C94.2922 464.244 94.7899 461.684 95.1057 459.806C95.4214 457.929 95.8765 454.857 96.1154 452.98C96.3515 451.103 96.6729 447.903 96.8294 445.869C96.9858 443.835 97.2446 439.739 97.4039 436.767C97.5604 433.794 97.8192 428.353 97.9757 424.678C98.1321 421.003 98.2942 417.066 98.3341 415.932C98.3739 414.797 98.4393 413.869 98.4791 413.869C98.5189 413.869 99.4775 414.376 100.612 414.999C101.747 415.619 104.211 416.762 106.088 417.539L109.501 418.955C109.641 432.537 109.538 438.914 109.362 441.887C109.185 444.859 108.858 448.89 108.634 450.847C108.409 452.801 108.028 455.62 107.786 457.104C107.547 458.589 107.018 461.086 106.611 462.651C106.207 464.215 105.468 466.391 104.97 467.486C104.475 468.581 103.61 469.989 103.056 470.615C102.322 471.44 100.92 472.316 97.9501 473.801C95.7001 474.927 93.089 476.358 92.1503 476.981C91.2117 477.604 89.579 478.827 88.5237 479.697C87.4684 480.568 86.0235 482.018 85.3152 482.917C84.6041 483.816 83.637 485.321 83.1592 486.259C82.6841 487.198 82.3371 488.214 82.3883 488.518C82.4367 488.822 82.8633 489.297 83.3327 489.573C83.802 489.852 85.21 490.335 86.4615 490.651C87.713 490.967 90.145 491.439 91.8659 491.701C94.0959 492.042 96.7497 492.176 101.11 492.164C105.394 492.156 108.079 492.011 110.07 491.681C111.634 491.425 113.876 490.97 115.048 490.671C116.223 490.375 117.79 489.869 118.532 489.548C119.275 489.226 120.418 488.481 121.069 487.895C121.877 487.17 122.642 486.012 123.462 484.268C124.127 482.86 125.265 480.044 125.996 478.011C126.724 475.977 127.751 473.289 128.28 472.037C128.806 470.786 129.876 467.651 130.655 465.069C131.432 462.486 132.968 457.303 134.065 453.549C135.166 449.794 137.61 441.218 139.498 434.491C141.39 427.764 143.458 420.468 144.098 418.278C144.738 416.088 145.759 412.663 146.368 410.669C146.976 408.675 147.474 406.977 147.474 406.901C147.474 406.824 147.665 406.758 147.901 406.758C148.239 406.758 148.327 407.162 148.327 408.678C148.327 409.734 148.196 411.688 148.032 413.016C147.869 414.344 147.337 417.544 146.851 420.127C146.24 423.361 145.955 425.748 145.938 427.807C145.918 430.27 146.018 431.018 146.504 432.074C146.831 432.776 147.989 434.824 149.081 436.625C150.171 438.425 151.311 440.598 151.615 441.46C152.062 442.729 152.164 443.75 152.147 446.864C152.13 449.697 151.954 451.526 151.476 453.833C151.118 455.554 150.361 458.37 149.798 460.091C149.223 461.846 148.299 463.939 147.696 464.855C147.039 465.854 146.262 466.653 145.696 466.909C145.187 467.137 143.426 467.836 141.785 468.465C140.144 469.091 137.664 470.28 136.273 471.104C134.799 471.981 132.842 473.494 131.568 474.74C129.984 476.29 129.079 477.473 128.263 479.066C127.256 481.029 127.182 481.307 127.563 481.711C127.796 481.959 128.564 482.346 129.27 482.567C129.975 482.789 131.508 483.159 132.683 483.392C133.855 483.623 136.162 483.964 137.803 484.149C139.66 484.357 143.159 484.428 147.047 484.339C151.331 484.243 154.067 484.044 155.723 483.708C157.051 483.438 158.846 482.957 159.705 482.641C160.564 482.323 161.685 481.76 162.194 481.387C162.703 481.017 163.3 480.426 163.525 480.073C163.747 479.72 164.589 477.257 165.397 474.597C166.202 471.938 167.567 467.905 168.432 465.638C169.296 463.371 171.367 458.697 173.034 455.255L176.06 448.998C176.035 444.637 175.924 444.208 174.732 441.602C174.018 440.038 173.079 437.734 172.65 436.482C172.064 434.776 171.834 433.459 171.725 431.22C171.62 428.99 171.703 427.764 172.053 426.385C172.311 425.366 172.88 423.768 173.315 422.829C173.751 421.891 174.641 420.323 175.295 419.345C175.952 418.366 176.584 417.567 176.7 417.567C176.817 417.57 177.514 418.625 178.245 419.914C178.976 421.205 180.256 423.776 181.089 425.628L182.602 428.999C179.553 439.426 178.188 444.12 177.605 446.153C177.022 448.187 175.892 452.155 175.096 454.971C174.3 457.787 173.645 460.378 173.645 460.731C173.643 461.089 173.893 461.496 174.211 461.655C174.527 461.815 177.215 461.948 180.256 461.96C183.268 461.968 186.755 462.128 188.007 462.315L190.282 462.651C190.154 464.855 189.867 466.039 189.56 466.704C189.253 467.37 188.448 468.456 187.768 469.122C187.088 469.788 186.226 470.484 185.848 470.672C185.47 470.857 183.817 471.631 182.176 472.39C180.535 473.15 178.037 474.461 176.629 475.306C174.934 476.321 173.253 477.664 171.651 479.276C170.238 480.699 168.853 482.42 168.318 483.418C167.814 484.354 167.399 485.409 167.393 485.762C167.388 486.242 167.686 486.538 168.594 486.953C169.259 487.258 171.401 487.827 173.358 488.219C175.312 488.615 178.834 489.084 181.18 489.266C183.658 489.459 187.117 489.519 189.429 489.411C191.619 489.309 195.141 488.979 197.251 488.674C199.362 488.373 202.212 487.801 203.58 487.406C204.948 487.01 206.549 486.447 207.135 486.151C207.721 485.858 208.353 485.443 208.538 485.227C208.725 485.014 209.078 484.069 209.326 483.131C209.57 482.192 210.082 479.695 210.458 477.584C210.836 475.473 211.379 471.611 211.664 469.002L212.184 464.261C217.256 463.985 220.134 463.777 221.855 463.624C223.576 463.467 226.52 463.083 228.397 462.77C230.275 462.457 233.219 461.835 234.94 461.388C236.66 460.944 239.348 460.105 240.913 459.525C242.477 458.945 244.909 457.929 246.317 457.266C247.725 456.604 249.836 455.446 251.01 454.689C252.182 453.936 253.974 452.653 254.993 451.842C256.011 451.029 257.931 449.222 259.259 447.829C260.588 446.435 262.399 444.208 263.281 442.879C264.163 441.551 265.269 439.697 265.739 438.758C266.205 437.819 266.973 435.962 267.443 434.633C267.912 433.305 268.56 430.998 268.885 429.514C269.206 428.029 269.621 425.082 269.806 422.971C270.065 420.01 270.065 418.284 269.803 415.434C269.619 413.4 269.163 410.393 268.794 408.749C268.421 407.108 267.713 404.611 267.215 403.203C266.717 401.795 265.605 399.235 264.74 397.514C263.879 395.793 262.516 393.361 261.714 392.11C260.912 390.858 259.285 388.62 258.096 387.132C256.91 385.644 254.54 383.042 252.834 381.344C251.127 379.645 248.322 377.162 246.602 375.82C244.881 374.48 242.127 372.506 240.486 371.434C238.845 370.361 235.514 368.473 233.091 367.238C230.667 366.004 227.402 364.485 225.837 363.865C224.273 363.242 221.713 362.332 220.149 361.842L217.304 360.952C215.541 356.222 214.238 353.246 213.274 351.292C212.309 349.335 210.506 346.201 209.272 344.324C208.034 342.446 206.001 339.63 204.749 338.066C203.495 336.501 201.603 334.26 200.545 333.088C199.484 331.913 197.501 329.865 196.139 328.537C194.774 327.209 190.083 322.706 185.714 318.536C181.342 314.366 176.797 309.886 175.611 308.581C174.428 307.275 172.69 305.313 171.751 304.217C170.812 303.122 169.239 301.137 168.255 299.809C167.268 298.48 165.786 295.983 164.959 294.262C164.131 292.541 163.135 290.109 162.746 288.858C162.356 287.606 161.776 285.368 161.454 283.88C161.13 282.392 160.72 279.642 160.541 277.764C160.356 275.799 160.297 272.963 160.405 271.08C160.51 269.28 160.777 266.594 160.999 265.107C161.224 263.619 161.659 261.381 161.966 260.129C162.481 258.036 162.657 257.723 164.174 256.198C165.078 255.288 166.91 253.823 168.238 252.941C169.567 252.062 172.32 250.552 174.354 249.582C176.387 248.612 182.915 245.995 188.86 243.765C194.805 241.535 201.139 239.081 202.94 238.313C204.74 237.542 207.81 236.077 209.767 235.056C211.721 234.035 214.346 232.482 215.598 231.605C216.849 230.729 218.911 228.98 220.183 227.72C221.451 226.46 223.024 224.594 223.678 223.579C224.33 222.56 225.126 221.024 225.445 220.165C225.763 219.306 226.048 217.932 226.074 217.116C226.11 215.961 225.994 215.506 225.553 215.077C225.24 214.772 224.154 214.272 223.135 213.964C222.117 213.654 219.941 213.134 218.3 212.807C216.659 212.48 212.819 211.888 209.767 211.49C206.714 211.092 202.491 210.509 200.38 210.193C198.269 209.874 194.811 209.24 192.7 208.779C190.59 208.318 187.097 207.397 184.943 206.728L181.024 205.517C179.897 203.312 178.845 201.657 177.958 200.414C177.07 199.174 175.065 196.864 173.5 195.282C171.936 193.701 169.293 191.388 167.627 190.145C165.963 188.9 163.653 187.304 162.492 186.601L160.388 185.321C160.092 173.733 159.776 168.755 159.418 165.695C159.088 162.879 158.493 158.974 158.098 157.019C157.702 155.062 157.011 152.312 156.559 150.904C156.11 149.496 155.379 147.767 154.935 147.064C154.491 146.359 153.752 145.483 153.291 145.116C152.588 144.558 152.244 144.476 151.172 144.621C150.466 144.715 148.868 145.283 147.616 145.884C146.365 146.481 144.379 147.585 143.207 148.333C142.033 149.084 139.86 150.665 138.372 151.848C136.884 153.032 133.955 155.543 131.861 157.429C129.765 159.315 126.565 162.464 124.75 164.423C122.932 166.386 120.361 169.299 119.03 170.9C117.699 172.499 116.547 173.801 116.47 173.793C116.393 173.787 115.406 172.408 114.277 170.732C113.151 169.057 111.097 166.15 109.712 164.273C108.329 162.395 106.131 159.579 104.825 158.015C103.519 156.451 101.028 153.72 99.2926 151.945C97.5547 150.173 95.0459 147.795 93.7147 146.663C92.3836 145.531 90.4636 144.046 89.4481 143.363C88.4327 142.681 86.6379 141.671 85.466 141.122C84.1746 140.516 82.7723 140.081 81.9105 140.021C80.8296 139.944 80.2493 140.067 79.4927 140.533Z" fill="#010107"/>
<path d="M93.9906 177.855C93.9878 177.895 94.6932 179.462 95.5607 181.339C96.4283 183.217 97.1052 184.778 97.0626 184.807C97.0199 184.838 95.7058 184.423 94.1414 183.885C92.5769 183.347 91.0723 182.906 90.7992 182.906C90.3327 182.904 90.3384 183.037 90.8874 184.966C91.2116 186.101 91.991 188.245 92.6196 189.73C93.2482 191.218 94.3661 193.584 95.1056 194.992C95.8452 196.4 97.2418 198.767 98.2117 200.254L99.9724 202.957C90.8134 212.215 85.9637 217.27 83.29 220.165C80.6134 223.061 76.7962 227.282 74.8051 229.552C72.8112 231.822 69.6283 235.451 67.7282 237.621C65.8282 239.789 63.5413 242.414 62.6424 243.452C61.7464 244.488 61.0097 245.435 61.0069 245.552C61.0069 245.668 61.5473 245.842 62.2129 245.936C62.8785 246.027 64.3804 245.958 65.5551 245.782C66.727 245.606 68.9684 245.068 70.5328 244.587C72.0972 244.104 74.7852 243.14 76.5061 242.44C78.2269 241.74 79.797 241.018 79.9961 240.836C80.1952 240.651 80.4512 240.602 80.565 240.722C80.6788 240.844 80.5309 241.419 80.2351 242.002L79.6975 243.063C81.4127 241.999 82.997 241.075 84.3282 240.324C85.6565 239.576 88.4099 238.242 90.4436 237.36C92.4774 236.481 95.8054 235.189 97.8391 234.493C99.8729 233.796 103.457 232.723 105.803 232.109C108.15 231.495 111.797 230.675 113.91 230.289C116.021 229.902 119.542 229.324 121.732 229.006C123.922 228.687 128.081 228.221 130.976 227.968C134.643 227.649 141.979 227.438 155.154 227.271C165.559 227.14 176.245 226.892 178.905 226.722C181.564 226.554 185.404 226.284 187.438 226.124C189.472 225.965 192.865 225.649 194.976 225.422C197.086 225.194 200.619 224.716 202.823 224.364L206.834 223.721C206.228 221.735 206.134 220.777 206.231 220.308C206.33 219.838 206.717 218.88 207.096 218.174C207.471 217.469 207.747 216.874 207.707 216.849C207.667 216.823 206.163 216.587 204.362 216.323C202.562 216.058 199.171 215.481 196.824 215.04C194.478 214.596 191.278 213.965 189.713 213.632C188.149 213.299 185.398 212.579 183.598 212.03C181.797 211.484 179.943 210.898 179.474 210.73C179.004 210.563 178.077 210.187 177.411 209.891C176.746 209.598 176.106 209.359 175.989 209.365C175.873 209.368 175.497 209.081 175.156 208.725C174.812 208.367 174.098 207.053 173.563 205.801C173.028 204.55 172.05 202.63 171.387 201.534C170.724 200.439 169.649 198.855 168.998 198.013C168.346 197.171 166.916 195.632 165.82 194.594C164.725 193.556 162.999 192.111 161.98 191.383C160.962 190.655 159.042 189.432 157.714 188.666C156.386 187.901 154.335 186.849 153.163 186.331C151.988 185.811 150.518 185.162 149.892 184.892C149.266 184.619 147.346 183.942 145.625 183.387C143.904 182.83 141.472 182.116 140.221 181.797C138.969 181.476 137.624 181.151 137.234 181.075C136.842 180.998 134.859 180.617 132.825 180.233C130.792 179.846 127.592 179.399 125.714 179.237C123.837 179.075 121.63 178.907 120.811 178.862C119.991 178.816 119.314 178.842 119.309 178.921C119.303 179.001 119.784 179.96 120.375 181.055C120.967 182.15 121.928 184.07 122.514 185.321C123.097 186.573 123.578 187.884 123.578 188.237C123.581 188.706 123.146 189.156 121.945 189.926C121.047 190.501 119.221 191.477 117.892 192.088C116.561 192.703 114.769 193.522 113.91 193.914C113.048 194.304 111.993 194.802 111.563 195.021C110.949 195.334 110.753 195.342 110.65 195.063C110.576 194.867 110.113 193.621 109.621 192.29C109.129 190.959 108.563 189.426 108.366 188.877C108.167 188.328 107.189 187.096 106.193 186.138C105.198 185.182 103.548 183.7 102.532 182.85C101.514 181.999 100.106 180.913 99.4035 180.435C98.6981 179.957 97.3243 179.166 96.3458 178.674C95.3673 178.185 94.44 177.784 94.2836 177.784C94.1272 177.784 93.9963 177.815 93.9906 177.855ZM67.6969 257.535C67.3385 258.181 66.1496 260.499 65.0545 262.689C63.9594 264.879 62.2982 268.401 61.3624 270.511C60.4266 272.622 58.9504 276.206 58.08 278.476C57.2096 280.746 55.9211 284.455 55.2185 286.724C54.516 288.994 53.62 292.129 53.2274 293.693C52.8349 295.258 52.1892 298.202 51.7882 300.235C51.3871 302.269 50.8524 305.404 50.602 307.204C50.3318 309.121 50.0787 313.476 49.9905 317.728C49.8909 322.496 49.9592 326.151 50.1868 328.395C50.3802 330.272 50.7727 333.154 51.0657 334.795C51.3558 336.436 51.6715 338.166 51.7654 338.635C51.8593 339.104 52.0641 340.063 52.2205 340.768C52.377 341.474 53.0824 343.84 53.7849 346.03C54.4875 348.221 55.1133 349.947 55.173 349.87C55.2299 349.793 55.1559 348.96 55.0023 348.021C54.8516 347.083 54.6525 342.603 54.5615 338.066C54.4505 332.673 54.5103 328.438 54.7321 325.835C54.9199 323.645 55.392 319.933 55.7874 317.586C56.1799 315.24 56.9394 311.624 57.4713 309.551C58.006 307.477 58.9731 304.343 59.6188 302.582C60.2645 300.821 61.4307 298.102 62.2072 296.538C62.9866 294.973 64.3149 292.638 65.1597 291.347C66.0017 290.055 66.7896 289 66.9062 288.997C67.0228 288.997 67.3442 289.862 67.6201 290.917C67.896 291.975 68.4791 293.608 68.9172 294.547C69.3552 295.485 70.2825 297.013 70.9765 297.94L72.2394 299.627C72.5523 295.69 72.8482 293.457 73.1041 292.129C73.3573 290.8 73.8664 288.622 74.2391 287.293C74.6088 285.965 75.2488 283.98 75.6641 282.884C76.0766 281.789 77.0181 279.613 77.7548 278.049C78.4943 276.485 79.78 273.99 80.6134 272.502C81.4468 271.015 83.344 267.946 84.8316 265.676C86.3193 263.406 88.2847 260.559 89.2035 259.347C90.1194 258.135 90.8675 257.111 90.8646 257.072C90.8589 257.032 89.6757 257.245 88.2335 257.547C86.3079 257.945 84.4334 258.09 81.1993 258.093C78.3265 258.095 75.9002 257.933 74.2305 257.626C72.8225 257.37 70.9225 256.98 70.0094 256.761L68.3483 256.366L67.6969 257.535ZM150.233 261.523C149.127 262.021 148.908 262.248 148.902 262.9C148.899 263.332 148.561 264.612 148.151 265.744C147.741 266.879 145.958 270.816 144.192 274.491C142.425 278.168 139.993 283.479 138.79 286.295C137.584 289.111 135.599 294.424 134.373 298.099C133.147 301.777 131.375 307.921 130.436 311.752C129.497 315.587 128.283 321.091 127.74 323.983C127.193 326.879 125.908 334.493 124.878 340.908C123.848 347.322 122.548 354.874 121.988 357.69C121.428 360.505 120.415 364.729 119.732 367.076C119.053 369.423 118.051 372.623 117.511 374.187L116.524 377.031C118.745 381.44 120.233 384.128 121.266 385.849C122.298 387.57 124.09 390.258 125.248 391.822C126.408 393.387 128.587 395.893 130.092 397.392C131.597 398.888 133.371 400.486 134.037 400.947L135.249 401.778C136.167 400.896 137.527 399.232 138.864 397.511C140.201 395.79 142.027 393.296 142.923 391.965C143.819 390.636 145.289 388.332 146.191 386.845C147.096 385.36 148.768 382.351 149.912 380.16C151.055 377.97 152.693 374.452 153.547 372.338C154.403 370.228 155.495 367.218 155.976 365.654C156.457 364.089 157.105 361.723 157.418 360.392C157.734 359.063 158.18 356.631 158.416 354.987C158.65 353.346 158.849 349.953 158.86 347.45L158.877 342.899C159.725 344.443 160.351 345.851 160.811 347.023C161.275 348.198 161.989 350.308 162.399 351.716C162.808 353.124 163.394 355.812 163.701 357.69C164.009 359.567 164.341 362.895 164.441 365.085C164.555 367.571 164.489 370.353 164.27 372.48C164.077 374.358 163.735 376.855 163.511 378.027C163.289 379.202 162.785 381.378 162.393 382.863C162 384.35 161.619 385.789 161.545 386.062C161.434 386.475 161.619 386.432 162.62 385.806C163.286 385.391 164.646 384.336 165.647 383.46C166.645 382.584 168.181 380.871 169.06 379.654C170.061 378.266 170.721 377.578 170.832 377.805C170.929 378.007 171.094 378.875 171.202 379.734C171.307 380.596 171.725 382.578 172.135 384.143C172.542 385.707 173.335 388.142 173.899 389.553C174.462 390.961 175.725 393.521 176.706 395.241C177.687 396.959 179.511 399.741 180.759 401.422C182.008 403.106 184.039 405.538 185.273 406.827C186.508 408.118 188.524 409.907 189.753 410.8C190.982 411.696 192.148 412.433 192.344 412.436C192.541 412.441 193.821 411.565 195.189 410.493C196.557 409.418 198.457 407.723 199.407 406.724C200.357 405.726 201.745 404.076 202.49 403.058C203.236 402.042 204.536 399.835 205.383 398.151C206.231 396.47 206.919 394.872 206.919 394.596C206.916 394.323 207.027 393.97 207.167 393.813C207.309 393.657 207.747 392.249 208.145 390.685C208.543 389.12 209.038 386.882 209.246 385.707C209.488 384.356 209.621 381.341 209.613 377.458C209.602 372.389 209.491 370.737 208.959 367.787C208.603 365.833 208.12 363.529 207.881 362.667C207.642 361.808 207.087 360.016 206.646 358.685C206.205 357.357 205.434 355.243 204.937 353.992C204.439 352.74 203.469 350.63 202.783 349.299C202.101 347.97 200.494 345.282 199.214 343.325C197.934 341.371 195.832 338.49 194.54 336.925C193.249 335.361 190.544 332.417 188.53 330.383C186.516 328.349 183.336 325.343 181.462 323.696C179.584 322.052 177.283 320.069 176.345 319.287C175.406 318.508 174.575 317.805 174.496 317.726C174.419 317.649 173.836 317.137 173.202 316.588C172.567 316.042 171.225 314.893 170.215 314.036C169.205 313.18 166.654 310.748 164.54 308.632C162.43 306.516 159.932 303.814 158.994 302.63C158.055 301.444 156.855 299.846 156.326 299.075L155.364 297.673C154.113 300.099 153.373 301.953 152.915 303.361C152.455 304.769 151.906 306.726 151.695 307.708C151.487 308.689 151.217 309.488 151.101 309.485C150.984 309.48 150.745 308.934 150.574 308.268C150.401 307.605 150.222 306.869 150.173 306.632C150.128 306.399 149.886 305.216 149.636 304.001C149.385 302.79 149.127 301.382 149.061 300.873C148.993 300.366 148.782 298.284 148.592 296.25C148.376 293.935 148.307 290.59 148.415 287.29C148.507 284.398 148.777 280.558 149.016 278.757C149.252 276.96 149.59 274.718 149.764 273.78C149.94 272.841 150.52 270.187 151.055 267.877C151.587 265.571 152.039 263.116 152.053 262.419C152.071 261.725 151.965 261.105 151.823 261.042C151.678 260.977 150.964 261.196 150.233 261.523ZM219.73 369.28C219.736 369.477 219.864 370.532 220.018 371.627C220.168 372.722 220.291 375.604 220.291 378.027C220.288 380.743 220.112 383.477 219.83 385.138C219.58 386.626 219.062 388.93 218.678 390.258C218.294 391.589 217.446 393.893 216.795 395.378C216.141 396.866 214.793 399.298 213.794 400.782C212.799 402.27 211.166 404.415 210.165 405.547C209.092 406.761 208.521 407.609 208.771 407.609C209.007 407.609 209.997 407.285 210.975 406.884C211.954 406.485 213.971 405.834 215.455 405.439C217.407 404.915 219.184 404.673 221.855 404.563C224.114 404.471 226.384 404.543 227.686 404.75C228.861 404.935 229.916 405.146 230.033 405.211C230.149 405.279 229.874 405.942 229.416 406.684C228.961 407.43 227.828 408.869 226.907 409.884C225.982 410.903 224.563 412.214 223.755 412.8C222.945 413.389 222.313 413.929 222.353 414C222.393 414.074 223.96 413.75 225.837 413.278C227.715 412.806 230.403 411.964 231.811 411.4C233.219 410.84 234.851 410.14 235.437 409.85C236.023 409.557 236.663 409.315 236.859 409.313C237.13 409.313 237.164 409.728 237.002 411.019C236.885 411.961 236.564 413.406 236.291 414.228C236.018 415.053 235.346 416.475 234.797 417.385C234.251 418.298 232.778 420.133 231.526 421.467C229.481 423.643 229.336 423.865 230.104 423.677C230.573 423.56 232.365 422.895 234.086 422.198C235.807 421.498 238.111 420.403 239.206 419.766C240.301 419.129 241.903 418.088 242.762 417.456C243.623 416.825 244.838 415.829 245.464 415.243L246.602 414.179C247.133 415.812 247.449 417.246 247.643 418.418C247.839 419.592 247.995 422.343 247.99 424.533C247.984 427.03 247.808 429.42 247.515 430.933C247.256 432.264 246.704 434.375 246.289 435.626C245.873 436.878 245.085 438.798 244.537 439.893C243.988 440.988 243.109 442.558 242.582 443.377C242.056 444.199 240.793 445.832 239.775 447.004L237.926 449.137C240.46 448.011 242.605 446.751 244.326 445.607C246.047 444.464 248.527 442.518 249.838 441.284C251.15 440.049 252.945 438.081 253.826 436.906C254.708 435.734 256.022 433.621 256.745 432.213C257.47 430.805 258.446 428.438 258.915 426.951C259.381 425.466 259.939 423.29 260.147 422.115C260.357 420.943 260.525 418.19 260.522 416C260.516 413.309 260.351 411.235 260.01 409.6C259.734 408.272 259.123 406.03 258.653 404.622C258.184 403.214 257.043 400.526 256.116 398.649C255.192 396.772 254.142 394.758 253.789 394.169C253.434 393.583 252.185 391.791 251.013 390.187C249.841 388.585 247.475 385.818 245.751 384.037C244.03 382.26 241.405 379.887 239.917 378.767C238.432 377.649 236.128 376.073 234.797 375.265C233.469 374.46 231.165 373.226 229.677 372.52C228.193 371.815 225.408 370.72 223.491 370.083C221.574 369.445 219.944 368.925 219.864 368.925C219.787 368.925 219.728 369.087 219.73 369.28Z" fill="#FD7117"/>
<path d="M142.212 473.446C141.273 473.647 139.8 474.14 138.941 474.538C138.082 474.939 136.833 475.852 136.167 476.566C135.502 477.283 134.959 478.093 134.956 478.366C134.956 478.81 135.198 478.85 137.231 478.722C138.938 478.617 139.507 478.668 139.51 478.935C139.51 479.132 139.766 479.547 140.079 479.86C140.391 480.173 140.838 480.429 141.074 480.429C141.31 480.429 142.044 479.928 142.71 479.316C143.375 478.705 144.686 477.746 145.625 477.186C146.564 476.626 148.1 475.98 149.038 475.755C149.977 475.528 151.32 475.238 152.025 475.11L153.305 474.873C151.32 473.943 150.074 473.528 149.252 473.355C148.43 473.178 146.894 473.044 145.838 473.056C144.783 473.067 143.15 473.244 142.212 473.446ZM56.1685 476.574C55.1531 476.793 53.8077 477.152 53.1819 477.374C52.5561 477.596 51.4667 478.108 50.7642 478.511C50.0616 478.915 48.9409 479.831 48.2753 480.548C47.6097 481.265 47.0664 482.107 47.0664 482.42C47.0664 482.778 47.3025 483.04 47.7064 483.128C48.0591 483.202 48.7304 483.267 49.1997 483.27C49.6691 483.273 50.5963 483.466 51.2619 483.702L52.4708 484.126C55.227 482.016 56.4729 481.125 57.0219 480.79C57.5708 480.454 58.8508 479.863 59.8663 479.476C60.8817 479.089 62.5798 478.571 63.6351 478.321C64.6904 478.073 65.8765 477.869 66.2662 477.869C66.6587 477.869 66.9773 477.741 66.9773 477.584C66.9773 477.428 66.306 477.098 65.484 476.85C64.6619 476.603 62.6481 476.353 61.004 476.29C59.1068 476.219 57.3433 476.321 56.1685 476.574ZM186.158 476.725C185.452 476.842 184.172 477.169 183.313 477.453C182.454 477.738 181.237 478.267 180.611 478.631C179.986 478.992 178.993 479.737 178.407 480.286C177.821 480.832 177.266 481.635 177.175 482.064C177.084 482.494 177.09 482.909 177.189 482.989C177.289 483.068 178.484 482.923 179.843 482.67C181.206 482.414 182.415 482.255 182.531 482.314C182.648 482.371 182.745 482.804 182.745 483.273C182.745 483.805 183.012 484.394 183.456 484.837C183.848 485.227 184.357 485.548 184.593 485.548C184.83 485.548 185.307 485.395 185.66 485.207C186.013 485.019 187.39 483.99 188.718 482.917C190.046 481.845 191.776 480.665 192.558 480.295C193.34 479.925 194.811 479.396 195.829 479.123C196.847 478.85 197.806 478.531 197.962 478.415C198.119 478.298 197.541 477.948 196.682 477.638C195.823 477.328 194.35 476.933 193.411 476.759C192.472 476.586 190.743 476.458 189.571 476.478C188.399 476.498 186.863 476.609 186.158 476.725ZM101.11 477.869C99.9383 478.184 97.9529 478.938 96.7013 479.544C95.4498 480.147 93.9138 481.088 93.288 481.632C92.6623 482.175 91.8943 483.085 91.5814 483.651C91.1206 484.485 91.0808 484.752 91.3737 485.045C91.6639 485.338 92.1531 485.304 93.9337 484.869C95.1426 484.576 96.2917 484.286 96.488 484.229C96.7355 484.158 96.8435 484.516 96.8435 485.406C96.8435 486.308 97.0114 486.854 97.4124 487.255C97.7253 487.568 98.206 487.824 98.4791 487.827C98.7521 487.827 99.2983 487.611 99.6879 487.346C100.08 487.082 101.167 486.2 102.106 485.389C103.044 484.576 104.836 483.247 106.088 482.437C107.578 481.472 109.2 480.713 110.781 480.241C112.112 479.845 113.358 479.47 113.554 479.407C113.751 479.342 113.845 479.163 113.768 479.006C113.691 478.85 112.761 478.449 111.706 478.116C110.357 477.692 108.813 477.479 106.515 477.405C103.886 477.32 102.822 477.411 101.11 477.869Z" fill="#FB3936"/>
<path d="M81.5008 151.829C81.0201 152.415 80.1953 153.985 79.6633 155.313C79.1343 156.644 78.2497 159.523 77.6979 161.713C77.146 163.903 76.4975 167.038 76.2529 168.682C76.0111 170.326 75.6812 173.076 75.519 174.797C75.3598 176.518 75.2261 179.269 75.2261 180.913C75.2261 182.557 75.4166 185.532 75.6527 187.526C75.886 189.52 76.3212 192.273 76.6198 193.641C76.9156 195.01 77.4902 197.123 77.8998 198.335C78.3066 199.546 79.1058 201.466 79.6747 202.601C80.2436 203.736 81.1851 205.369 81.7682 206.228C82.3513 207.087 83.5516 208.529 84.4334 209.428C85.3123 210.327 86.7061 211.447 87.5281 211.914C88.3502 212.383 89.1182 212.767 89.2348 212.767C89.3514 212.77 89.1437 212.161 88.7683 211.419C88.3957 210.677 87.4371 208.501 86.635 206.583C85.8357 204.666 84.7349 201.594 84.1916 199.757C83.6484 197.919 83.1051 195.809 82.9828 195.069C82.8633 194.33 82.8292 193.727 82.906 193.73C82.9828 193.732 83.6228 194.159 84.3282 194.68C85.0336 195.197 86.8227 196.332 88.3103 197.197C89.798 198.064 92.1645 199.35 93.5725 200.056C94.9805 200.761 96.9659 201.674 97.9813 202.081C98.9968 202.49 99.8615 202.82 99.9013 202.817C99.9411 202.817 99.1788 201.631 98.2117 200.184C97.2418 198.736 95.8452 196.4 95.1056 194.992C94.3661 193.584 93.2482 191.218 92.6196 189.73C91.991 188.246 91.2116 186.101 90.8874 184.966C90.3384 183.037 90.3327 182.904 90.7992 182.907C91.0723 182.907 92.577 183.347 94.1414 183.885C95.7058 184.423 97.0199 184.838 97.0626 184.807C97.1052 184.778 96.4311 183.217 95.5664 181.339C94.7046 179.462 94.0617 177.863 94.1442 177.784C94.2267 177.704 94.9577 177.96 95.7684 178.353C96.5819 178.742 98.0183 179.562 98.9655 180.167C99.9098 180.773 101.451 181.917 102.39 182.707C103.329 183.498 104.91 184.92 105.906 185.87C107.345 187.247 107.669 187.452 107.502 186.886C107.388 186.496 106.719 184.895 106.017 183.33C105.317 181.766 103.989 178.981 103.07 177.144C102.148 175.306 100.541 172.362 99.5002 170.602C98.4592 168.841 96.7127 166.059 95.6205 164.415C94.5311 162.771 92.7903 160.342 91.7549 159.014C90.7224 157.685 89.1068 155.777 88.1681 154.773C87.2295 153.769 85.8528 152.454 85.1104 151.854C84.368 151.254 83.4464 150.762 83.0681 150.762C82.613 150.762 82.0754 151.129 81.5008 151.829ZM140.932 227.484C141.478 227.544 142.439 227.544 143.065 227.484C143.691 227.422 143.244 227.373 142.07 227.373C140.895 227.373 140.386 227.422 140.932 227.484ZM217.873 404.898C216.778 405.097 215.051 405.524 214.033 405.845C213.015 406.167 211.257 406.759 210.122 407.162C208.688 407.672 207.195 408.545 205.215 410.03C203.651 411.201 201.461 413.028 200.346 414.083C199.231 415.138 197.456 417.089 196.401 418.421C195.343 419.749 193.903 421.734 193.198 422.829C192.492 423.924 191.147 426.356 190.208 428.234C189.27 430.111 187.921 433.246 187.213 435.203C186.508 437.157 185.538 440.357 185.06 442.314C184.585 444.268 183.99 447.084 183.743 448.571C183.496 450.056 183.362 451.305 183.444 451.345C183.53 451.384 185.293 450.787 187.367 450.016C189.44 449.248 193.886 447.758 197.251 446.708C200.616 445.659 203.591 444.754 203.864 444.694C204.137 444.637 204.359 444.686 204.359 444.802C204.356 444.919 203.822 445.912 203.173 447.007C202.525 448.102 200.923 450.085 199.618 451.416C198.309 452.744 197.274 453.85 197.317 453.87C197.359 453.893 198.739 454.149 200.38 454.439C202.769 454.866 204.789 454.971 210.478 454.968C216.041 454.968 218.268 454.855 220.717 454.445C222.438 454.158 225.254 453.563 226.975 453.122C228.696 452.679 231.768 451.677 233.802 450.892C237.246 449.564 237.605 449.353 239.041 447.809C239.889 446.899 241.106 445.448 241.746 444.589C242.383 443.727 243.498 441.873 244.224 440.465C244.949 439.057 245.879 436.881 246.294 435.629C246.707 434.378 247.256 432.264 247.515 430.936C247.808 429.42 247.984 427.033 247.99 424.536C247.992 422.346 247.839 419.592 247.643 418.421C247.449 417.246 247.133 415.812 246.946 415.235L246.602 414.182C244.838 415.829 243.621 416.825 242.762 417.456C241.903 418.091 240.301 419.129 239.206 419.769C238.111 420.406 235.807 421.501 234.086 422.198C232.365 422.898 230.573 423.563 230.104 423.677C229.336 423.868 229.478 423.646 231.526 421.467C232.778 420.136 234.251 418.301 234.797 417.388C235.343 416.475 236.018 415.056 236.291 414.231C236.564 413.406 236.885 411.964 237.002 411.022C237.164 409.728 237.127 409.313 236.859 409.316C236.663 409.318 236.023 409.557 235.437 409.85C234.851 410.143 233.219 410.84 231.811 411.403C230.403 411.964 227.715 412.809 225.837 413.278C223.96 413.75 222.393 414.074 222.353 414.003C222.313 413.929 222.945 413.389 223.752 412.803C224.563 412.217 225.98 410.903 226.904 409.887C227.828 408.869 228.958 407.43 229.416 406.687C229.874 405.945 230.149 405.282 230.033 405.217C229.916 405.149 228.989 404.958 227.971 404.79C226.952 404.625 224.714 404.497 222.993 404.511C221.272 404.523 218.968 404.699 217.873 404.898Z" fill="#FDF7E1"/>
<path d="M205.122 224.071C205.096 224.108 204.624 224.199 204.078 224.275C203.532 224.352 202.764 224.48 202.371 224.563C201.981 224.642 201.085 224.784 200.38 224.876C199.677 224.967 198.588 225.097 197.962 225.168C197.336 225.24 196.25 225.362 195.544 225.442C194.842 225.518 193.69 225.641 192.984 225.709C192.282 225.777 191.064 225.897 190.282 225.976C189.5 226.053 187.771 226.187 186.442 226.275C185.114 226.36 183.194 226.497 182.176 226.579C181.157 226.662 179.237 226.79 177.909 226.864C176.581 226.938 171.779 227.057 167.243 227.131C162.706 227.205 153.939 227.342 147.758 227.433C141.58 227.524 136.076 227.64 135.527 227.691C134.981 227.743 133.38 227.871 131.972 227.976C130.564 228.081 128.965 228.215 128.416 228.272C127.87 228.329 126.718 228.451 125.856 228.539C124.997 228.63 123.845 228.767 123.297 228.841C122.75 228.917 121.789 229.045 121.163 229.125C120.537 229.205 119.707 229.333 119.314 229.407C118.925 229.483 117.963 229.665 117.181 229.816C116.399 229.967 115.247 230.158 114.621 230.24C113.995 230.323 113.227 230.445 112.914 230.513C112.602 230.581 112.027 230.709 111.634 230.803C111.245 230.894 110.605 231.025 110.212 231.096C109.823 231.167 109.086 231.361 108.577 231.526C108.068 231.691 107.652 231.762 107.652 231.685C107.652 231.608 107.428 231.659 107.155 231.799C106.881 231.941 106.273 232.126 105.803 232.211C105.334 232.297 104.341 232.564 103.599 232.809C102.857 233.05 102.254 233.153 102.259 233.036C102.268 232.919 102.055 233.013 101.79 233.249C101.525 233.483 101.23 233.648 101.139 233.614C101.045 233.579 100.456 233.687 99.8302 233.855C99.2044 234.023 98.5644 234.239 98.408 234.336C98.2515 234.433 97.933 234.544 97.6969 234.583C97.4636 234.62 97.0796 234.743 96.8436 234.851C96.6103 234.959 96.3202 235.093 96.2036 235.144C96.0869 235.198 95.9277 235.241 95.848 235.241C95.7712 235.241 95.6091 235.283 95.4925 235.337C95.3758 235.388 95.0231 235.528 94.7103 235.647C94.3974 235.764 93.8228 235.994 93.4303 236.159C93.0406 236.324 92.3039 236.631 91.7947 236.845C91.2856 237.058 90.455 237.408 89.9459 237.621C89.4367 237.837 88.0629 238.475 86.8881 239.038C85.7162 239.604 84.2485 240.355 83.6313 240.71C83.0141 241.066 82.3712 241.484 82.2034 241.64C82.0356 241.797 81.4838 242.115 80.9803 242.352C80.474 242.585 80.0616 242.875 80.0616 242.992C80.0616 243.108 79.9336 243.139 79.7771 243.063C79.6207 242.986 78.372 244.107 77.0038 245.554C75.6357 247.005 74.2277 248.604 73.875 249.11C73.289 249.955 73.2748 250.043 73.7328 250.174C74.0058 250.25 74.4865 250.373 74.7994 250.441C75.1123 250.512 75.7836 250.706 76.2927 250.871C76.8019 251.036 77.2484 251.158 77.2883 251.146C77.3281 251.132 77.6808 251.195 78.0705 251.286C78.463 251.374 79.103 251.493 79.4927 251.548C79.8852 251.604 80.3318 251.724 80.4882 251.812C80.6447 251.9 81.3501 252.045 82.0526 252.136C82.7581 252.224 83.7166 252.37 84.1859 252.455C84.6553 252.543 85.2327 252.668 85.4659 252.734C85.702 252.802 86.7886 252.938 87.8837 253.038C88.9788 253.138 90.4522 253.26 91.1547 253.308C91.8602 253.357 93.618 253.408 95.0658 253.419C97.0256 253.439 97.6713 253.536 97.5973 253.8C97.5433 253.997 96.6786 254.571 95.6773 255.077C94.6761 255.587 93.7602 256.002 93.6436 256.002C93.527 256.005 93.0776 256.153 92.6481 256.335C92.2186 256.517 91.7691 256.645 91.6525 256.619C91.5359 256.593 90.6456 257.629 89.6728 258.92C88.7029 260.212 87.8353 261.332 87.7443 261.409C87.6533 261.486 86.47 263.278 85.1104 265.391C83.7508 267.502 82.539 269.359 82.4167 269.516C82.2944 269.672 81.8251 270.505 81.37 271.364C80.9177 272.223 80.4484 273.057 80.3318 273.213C80.2123 273.37 79.4785 274.778 78.6962 276.342C77.9169 277.907 77.0124 279.761 76.6824 280.467C76.3553 281.172 76.0851 281.843 76.0822 281.96C76.0822 282.077 75.9656 282.461 75.8291 282.813C75.6926 283.166 75.5646 283.55 75.5446 283.667C75.5247 283.783 75.3199 284.264 75.0839 284.733C74.8506 285.203 74.5804 286.067 74.4837 286.653C74.387 287.239 74.185 288.038 74.0314 288.431C73.8778 288.821 73.6958 289.461 73.6304 289.853C73.5649 290.243 73.3744 291.204 73.2094 291.986C73.0444 292.769 72.8368 293.983 72.7486 294.689C72.6576 295.394 72.6035 296.768 72.6263 297.746C72.649 298.767 72.5466 299.524 72.3817 299.524C72.2252 299.524 71.8099 299.129 71.4572 298.645C71.1045 298.164 70.675 297.618 70.5044 297.436C70.3308 297.254 69.7221 296.242 69.1533 295.186C68.5815 294.131 68.2118 293.272 68.3284 293.278C68.445 293.286 68.3938 293.127 68.2118 292.922C68.0269 292.72 67.8676 292.459 67.8562 292.342C67.842 292.225 67.8221 292.097 67.8079 292.058C67.7965 292.018 67.7225 291.73 67.6429 291.418C67.5661 291.105 67.4466 290.496 67.3812 290.066C67.3129 289.614 67.0825 289.284 66.8351 289.284C66.6018 289.284 66.3458 289.54 66.2662 289.853C66.1894 290.166 65.996 290.422 65.8395 290.422C65.6831 290.422 65.5551 290.613 65.5551 290.849C65.5551 291.085 65.4271 291.275 65.2707 291.275C65.1142 291.275 64.9862 291.466 64.9862 291.702C64.9862 291.938 64.8895 292.129 64.7729 292.129C64.6563 292.126 64.4316 292.368 64.2751 292.661C64.1187 292.956 63.2454 294.717 62.3352 296.574C61.425 298.432 60.5603 300.175 60.4152 300.449C60.2702 300.722 60.1507 301.074 60.1507 301.231C60.1507 301.387 59.9687 301.93 59.7497 302.44C59.5278 302.949 59.1808 303.876 58.9788 304.502C58.7769 305.128 58.5721 305.736 58.5266 305.853C58.4811 305.97 58.4355 306.098 58.4213 306.137C58.4099 306.177 58.3616 306.399 58.3132 306.635C58.2649 306.871 58.0601 307.636 57.861 308.342C57.659 309.047 57.4599 309.75 57.4172 309.906C57.3746 310.063 57.2608 310.509 57.1669 310.902C57.0731 311.291 56.9451 311.931 56.8853 312.324C56.8256 312.714 56.6293 313.675 56.4502 314.457C56.2681 315.239 56.069 316.135 56.0064 316.448C55.941 316.761 55.813 317.529 55.7191 318.155C55.6224 318.781 55.5001 319.611 55.4461 320.004C55.3892 320.394 55.2783 321.227 55.1929 321.853C55.1104 322.478 54.9483 323.949 54.8345 325.124C54.7207 326.296 54.6326 330.969 54.6383 335.506C54.6468 340.043 54.7492 344.585 54.8658 345.603C54.9853 346.622 55.1332 347.836 55.1958 348.306C55.2583 348.775 55.3721 349.671 55.4461 350.297C55.52 350.923 56.0861 352.905 56.7061 354.706C57.3234 356.506 58.0971 358.585 58.4213 359.328C58.7484 360.07 59.013 360.744 59.013 360.821C59.013 360.898 59.1865 361.316 59.3998 361.745C59.6103 362.175 60.5376 364.098 61.462 366.015C62.3836 367.932 63.2341 369.502 63.3507 369.499C63.4673 369.496 63.6408 369.784 63.7347 370.136C63.8257 370.489 64.4259 371.672 65.063 372.768C65.7002 373.863 66.3259 374.79 66.4568 374.83C66.5876 374.87 66.6929 375.029 66.6929 375.185C66.6929 375.342 67.7481 377.02 69.0395 378.917C70.3308 380.814 71.7417 382.766 72.174 383.255C72.6092 383.744 72.9619 384.211 72.9591 384.287C72.9562 384.364 73.3687 384.885 73.875 385.439C74.3841 385.997 75.1777 386.955 75.6385 387.573C76.0993 388.19 78.2838 390.488 80.4911 392.678C82.6983 394.869 84.9369 397.045 85.4631 397.514C85.9893 397.983 86.8312 398.686 87.3319 399.078C87.8353 399.468 88.5322 399.98 88.8821 400.216C89.2319 400.452 89.6927 400.802 89.9089 400.998C90.1251 401.195 90.4294 401.354 90.5859 401.354C90.7423 401.354 90.8703 401.482 90.8703 401.638C90.8703 401.795 90.9983 401.923 91.1547 401.923C91.3112 401.923 91.6269 402.082 91.8573 402.278C92.0849 402.475 92.4376 402.768 92.6395 402.932C92.8386 403.097 93.453 403.481 93.9991 403.786C94.5481 404.09 95.0601 404.417 95.1369 404.511C95.2166 404.602 95.6148 404.858 96.0215 405.08C96.4311 405.299 97.5831 405.905 98.5815 406.423C99.5827 406.943 100.558 407.296 100.755 407.205C100.951 407.117 101.11 406.852 101.11 406.616C101.11 406.38 101.213 406.158 101.341 406.118C101.466 406.078 101.978 405.438 102.478 404.696C102.976 403.954 103.386 403.279 103.386 403.203C103.386 403.126 103.701 402.645 104.088 402.136C104.475 401.627 104.797 401.115 104.799 400.998C104.805 400.882 105.181 400.242 105.638 399.576C106.094 398.91 106.614 398.046 106.796 397.656C106.975 397.264 107.496 396.305 107.948 395.523C108.403 394.741 109.569 392.499 110.537 390.545C111.506 388.588 112.457 386.606 112.65 386.136C112.84 385.667 113.324 384.578 113.719 383.719C114.115 382.86 114.718 381.449 115.062 380.59C115.403 379.731 115.861 378.61 116.077 378.101C116.294 377.592 116.47 377.048 116.47 376.892C116.47 376.736 116.592 376.383 116.74 376.11C116.888 375.837 117.42 374.332 117.923 372.768C118.427 371.203 118.819 369.892 118.794 369.852C118.765 369.812 118.947 369.238 119.198 368.572C119.445 367.906 119.713 366.979 119.792 366.51C119.872 366.041 120.085 365.492 120.264 365.29C120.446 365.085 120.498 364.926 120.381 364.934C120.264 364.94 120.301 364.53 120.466 364.021C120.631 363.512 120.825 362.872 120.893 362.599C120.964 362.326 121.086 361.814 121.169 361.461C121.249 361.108 121.382 360.372 121.468 359.826C121.55 359.279 121.687 358.639 121.772 358.403C121.854 358.167 121.98 357.527 122.048 356.981C122.119 356.435 122.236 355.795 122.31 355.559C122.383 355.323 122.509 354.811 122.588 354.421C122.671 354.029 122.802 353.198 122.881 352.572C122.964 351.947 123.083 351.244 123.151 351.008C123.22 350.772 123.342 350.197 123.422 349.728C123.501 349.259 123.635 348.363 123.718 347.737C123.803 347.111 123.934 346.184 124.01 345.675C124.087 345.165 124.221 344.335 124.306 343.826C124.392 343.317 124.508 342.645 124.565 342.332C124.619 342.02 124.741 341.189 124.838 340.484C124.932 339.778 125.089 338.82 125.182 338.35C125.279 337.881 125.396 337.241 125.441 336.928C125.487 336.615 125.603 335.719 125.703 334.937C125.802 334.155 125.956 333.259 126.047 332.946C126.138 332.633 126.26 332.024 126.317 331.595C126.377 331.165 126.491 330.429 126.568 329.959C126.647 329.49 126.77 328.753 126.841 328.324C126.915 327.894 127.045 327.22 127.131 326.83C127.219 326.438 127.355 325.67 127.435 325.124C127.515 324.578 127.651 323.807 127.739 323.417C127.828 323.025 127.956 322.45 128.021 322.137C128.089 321.824 128.212 321.119 128.3 320.573C128.385 320.027 128.641 318.809 128.869 317.871C129.093 316.932 129.347 315.908 129.432 315.595C129.514 315.282 129.637 314.77 129.702 314.457C129.768 314.144 130.208 312.287 130.681 310.333C131.153 308.376 131.929 305.497 132.404 303.933C132.879 302.369 133.317 300.898 133.38 300.662C133.443 300.426 133.502 300.204 133.514 300.164C133.528 300.124 133.602 299.965 133.679 299.809C133.758 299.652 133.821 299.459 133.821 299.382C133.821 299.305 133.858 299.143 133.903 299.026C133.949 298.91 134.347 297.724 134.791 296.395C135.235 295.067 135.758 293.594 135.951 293.124C136.148 292.655 136.742 291.136 137.268 289.748C137.797 288.36 138.326 287.174 138.443 287.117C138.56 287.057 138.656 286.818 138.656 286.582C138.656 286.346 139.111 285.163 139.669 283.951C140.226 282.739 140.901 281.237 141.162 280.612C141.427 279.989 142.65 277.429 143.879 274.923C145.107 272.42 146.413 269.729 146.78 268.947C147.144 268.165 147.721 266.757 148.06 265.818C148.398 264.879 148.726 263.696 148.785 263.187C148.848 262.678 148.799 262.265 148.683 262.271C148.566 262.277 147.895 262.589 147.19 262.965C146.487 263.343 145.045 264.043 143.99 264.521C142.934 264.999 141.942 265.391 141.785 265.391C141.629 265.391 141.213 265.505 140.861 265.642C140.508 265.778 140.124 265.906 140.007 265.926C139.891 265.946 139.057 266.202 138.159 266.498C137.26 266.794 136.369 266.953 136.185 266.853C135.96 266.734 136.295 266.142 137.18 265.107C137.914 264.248 138.901 263.158 139.373 262.689C139.845 262.22 140.747 261.386 141.378 260.84C142.007 260.291 143.094 259.398 143.79 258.852C144.487 258.309 145.201 257.731 145.378 257.572C145.554 257.416 145.984 257.091 146.336 256.858C146.686 256.622 147.468 256.079 148.077 255.649C148.683 255.22 149.246 254.867 149.323 254.867C149.402 254.867 150.074 254.457 150.816 253.96C151.559 253.459 153.129 252.62 154.301 252.091C155.475 251.562 156.849 250.944 157.358 250.723C157.867 250.498 158.698 250.137 159.207 249.921C159.716 249.701 160.453 249.397 160.843 249.246C161.235 249.093 161.875 248.834 162.265 248.669C162.657 248.504 163.616 248.146 164.398 247.873C165.18 247.597 165.948 247.289 166.105 247.187C166.261 247.085 166.967 246.84 167.669 246.641C168.375 246.442 169.333 246.112 169.803 245.904C170.272 245.699 171.552 245.247 172.647 244.9C173.742 244.55 174.803 244.124 175.005 243.95C175.227 243.76 175.363 243.745 175.349 243.916C175.335 244.072 175.528 244.007 175.776 243.774C176.023 243.538 176.217 243.475 176.202 243.632C176.188 243.788 176.382 243.723 176.629 243.489C176.877 243.253 177.07 243.191 177.056 243.347C177.042 243.504 177.235 243.438 177.482 243.205C177.73 242.969 177.923 242.906 177.909 243.063C177.895 243.233 178.031 243.219 178.253 243.031C178.455 242.858 178.942 242.639 179.331 242.548C179.724 242.457 180.426 242.226 180.896 242.036C181.365 241.845 181.814 241.666 181.891 241.64C181.971 241.612 182.224 241.515 182.46 241.424C182.696 241.333 183.592 241.04 184.451 240.77C185.313 240.503 186.144 240.207 186.3 240.113C186.457 240.019 186.65 239.928 186.727 239.914C186.806 239.897 187.06 239.809 187.296 239.718C187.532 239.627 188.234 239.396 188.86 239.211C189.486 239.024 190.447 238.682 190.993 238.455C191.54 238.224 192.214 237.92 192.487 237.778C192.76 237.633 193.112 237.516 193.269 237.516C193.425 237.516 193.969 237.343 194.478 237.129C194.987 236.916 195.786 236.575 196.256 236.37C196.725 236.168 197.299 235.957 197.536 235.909C197.772 235.858 198.54 235.553 199.242 235.232C199.948 234.911 201.228 234.327 202.087 233.935C202.948 233.545 205.218 232.43 207.135 231.46C209.05 230.488 210.62 229.597 210.62 229.481C210.62 229.364 210.844 229.205 211.118 229.128C211.391 229.051 211.999 228.733 212.469 228.42C212.938 228.107 213.481 227.785 213.678 227.706C213.874 227.626 214.033 227.433 214.033 227.276C214.033 227.12 213.936 227.049 213.82 227.117C213.703 227.185 212.708 227.026 211.61 226.761C210.321 226.451 209.186 225.954 208.41 225.356C207.747 224.847 207.206 224.304 207.206 224.147C207.206 223.991 206.749 223.894 206.188 223.934C205.628 223.974 205.15 224.034 205.122 224.071Z" fill="#FCFCFC"/>
<path d="M150.745 205.11C149.337 205.224 147.354 205.465 146.336 205.647C145.318 205.832 143.463 206.239 142.212 206.558C140.96 206.873 138.335 207.641 136.381 208.264C134.424 208.887 132.76 209.453 132.683 209.524C132.606 209.595 133.053 210.176 133.679 210.819C134.304 211.461 135.778 212.756 136.95 213.694C138.124 214.633 140.235 216.086 141.643 216.923C143.051 217.762 145.417 218.942 146.905 219.548C148.393 220.154 150.887 220.984 152.452 221.394C154.016 221.801 156.511 222.284 157.998 222.466C159.622 222.663 162.234 222.725 164.54 222.623C166.651 222.529 169.211 222.267 170.229 222.043C171.247 221.821 172.462 221.482 172.931 221.292L173.785 220.947C171.521 220.453 170.562 220.032 170.192 219.696C169.822 219.36 169.302 218.592 169.035 217.989C168.77 217.386 168.235 215.808 167.846 214.476C167.399 212.952 166.682 211.382 165.909 210.224C165.234 209.217 164.108 207.971 163.403 207.456C162.697 206.942 161.451 206.262 160.629 205.946C159.807 205.633 158.337 205.306 157.358 205.224C156.38 205.138 155.069 205.033 154.443 204.988C153.817 204.939 152.153 204.996 150.745 205.11Z" fill="#010107"/>
<path d="M151.598 208.813C151.129 208.958 150.389 209.428 149.954 209.857C149.522 210.287 149.033 211.02 148.873 211.49C148.666 212.09 148.677 212.679 148.905 213.481C149.081 214.107 149.377 214.821 149.559 215.068C149.741 215.313 150.213 215.719 150.603 215.967C151.049 216.251 151.854 216.402 152.759 216.374C153.817 216.337 154.463 216.129 155.177 215.594C155.711 215.193 156.286 214.491 156.454 214.03C156.622 213.572 156.735 212.812 156.704 212.343C156.676 211.874 156.633 211.362 156.613 211.205C156.593 211.049 156.289 210.58 155.936 210.159C155.583 209.74 154.722 209.194 154.016 208.944C153.311 208.697 152.671 208.506 152.594 208.523C152.517 208.537 152.068 208.671 151.598 208.813Z" fill="#FCFCFC"/>
</svg>
